<svg width="40" height="40" viewBox="0 0 40 40" fill="none" xmlns="http://www.w3.org/2000/svg">
<path d="M9.5 12.125C9.5625 11.4375 9.9375 11.0625 10.625 11H29.375C30.0625 11.0625 30.4375 11.4375 30.5 12.125C30.4375 12.8125 30.0625 13.1875 29.375 13.25H10.625C9.9375 13.1875 9.5625 12.8125 9.5 12.125ZM9.5 19.625C9.5625 18.9375 9.9375 18.5625 10.625 18.5H29.375C30.0625 18.5625 30.4375 18.9375 30.5 19.625C30.4375 20.3125 30.0625 20.6875 29.375 20.75H10.625C9.9375 20.6875 9.5625 20.3125 9.5 19.625ZM29.375 28.25H10.625C9.9375 28.1875 9.5625 27.8125 9.5 27.125C9.5625 26.4375 9.9375 26.0625 10.625 26H29.375C30.0625 26.0625 30.4375 26.4375 30.5 27.125C30.4375 27.8125 30.0625 28.1875 29.375 28.25Z" fill="white"/>
<rect x="0.5" y="0.5" width="39" height="39" rx="5.5" stroke="#3200BE"/>
</svg>
