<svg width="30" height="31" viewBox="0 0 30 31" fill="none" xmlns="http://www.w3.org/2000/svg">
<path fill-rule="evenodd" clip-rule="evenodd" d="M21.6125 14.4535C24.2283 10.0393 25.926 16.9007 25.7212 18.4877C25.4902 20.2787 18.0864 30.432 23.6559 28.5573C34.2074 25.0057 27.9323 15.8535 27.3235 8.81401C27.0988 6.2157 28.6654 3.73221 28.7248 1.1267C28.7352 0.670022 27.9624 0.350848 27.514 0.455772C18.1715 2.64198 19.2681 17.1779 14.4566 20.3788C12.6738 21.5649 11.7094 18.0212 8.95406 16.994C5.55526 15.727 1.35665 15.7582 0.899789 20.4491C0.0716348 28.9524 6.1273 34.7219 14.3126 25.3168C20.1551 18.6037 18.8985 19.0336 21.6125 14.4535Z" fill="#060059"/>
</svg>
