<svg width="17" height="28" viewBox="0 0 17 28" fill="none" xmlns="http://www.w3.org/2000/svg">
<path fill-rule="evenodd" clip-rule="evenodd" d="M7.4522 19.0921C5.73933 19.3006 5.00576 19.16 3.56613 20.1812C-3.10223 24.9117 2.94463 30.4166 8.74249 25.1964C11.9866 22.2755 8.4756 16.4445 7.75393 13.6355C7.03828 10.8499 6.44786 9.26949 8.49391 9.43113C13.7313 9.84487 13.1828 14.6429 13.6906 16.6445C13.9158 17.5323 15.3039 18.5271 15.9545 17.1883C17.5628 13.8788 16.1438 9.11361 13.2869 6.88434C11.9489 5.8403 10.1847 5.47083 8.81174 4.47424C7.47734 3.50562 6.62856 1.92926 5.23937 1.04283C3.25835 -0.221236 3.37094 3.44034 3.39951 3.71321C3.93734 8.84856 4.45715 13.5535 6.84942 17.9861L7.4522 19.0921Z" fill="#060059"/>
</svg>
