<svg xmlns="http://www.w3.org/2000/svg" viewBox="0 0 500 500"><g id="freepik--Floor--inject-2"><polygon points="40.63 427.44 92.97 427.2 145.31 427.11 250 426.94 354.69 427.11 407.03 427.2 459.37 427.44 407.03 427.69 354.69 427.77 250 427.94 145.31 427.77 92.97 427.69 40.63 427.44" style="fill:#263238"></polygon></g><g id="freepik--Device--inject-2"><path d="M334.52,44.59H165.46A17.26,17.26,0,0,0,148.36,62V410a17.27,17.27,0,0,0,17.1,17.42H334.52A17.29,17.29,0,0,0,351.64,410V62A17.28,17.28,0,0,0,334.52,44.59Zm6.42,354.67c0,9.16-6.86,16.57-15.32,16.57H174.38c-8.48,0-15.34-7.41-15.34-16.57V75.2c0-18.66,6.86-19.57,15.34-19.57h30.3c1.76,0,3.2,2,3.2,4.48v1.07C207.88,67,211.06,67,215,67H285c3.94,0,7.1,0,7.1-5.83V60.11c0-2.48,1.42-4.48,3.21-4.48h30.29c8.46,0,15.32,2.48,15.32,19.57Z" style="fill:#263238"></path><path d="M340.94,75.2V399.26c0,9.16-6.86,16.57-15.32,16.57H174.38c-8.48,0-15.34-7.41-15.34-16.57V75.2c0-18.66,6.86-19.57,15.34-19.57h30.3c1.76,0,3.2,2,3.2,4.48v1.07C207.88,67,211.06,67,215,67H285c3.94,0,7.1,0,7.1-5.83V60.11c0-2.48,1.42-4.48,3.21-4.48h30.29C334.08,55.63,340.94,58.11,340.94,75.2Z" style="fill:#fff"></path><g id="freepik--u5Zjqx--inject-2"><path d="M199.45,62.91l-.29.29-.17.17a3.94,3.94,0,0,0-2.82-1.17,3.9,3.9,0,0,0-2.82,1.17c-.06,0-.11-.11-.16-.16l-.29-.29h0l.37-.33a4.06,4.06,0,0,1,.86-.55,4.56,4.56,0,0,1,1.13-.38l.57-.07h.5l.38,0a4.05,4.05,0,0,1,1,.25,4.58,4.58,0,0,1,.71.33,3.85,3.85,0,0,1,.67.47l.31.27Z" style="fill:#dbdbdb"></path><path d="M194.27,64.29l-.46-.46a3.27,3.27,0,0,1,1.88-.95,3.32,3.32,0,0,1,2.83.94l-.46.47a2.62,2.62,0,0,0-1.89-.79A2.66,2.66,0,0,0,194.27,64.29Z" style="fill:#dbdbdb"></path><path d="M197.6,64.75l-.46.46a1.38,1.38,0,0,0-1.94,0l-.46-.46A2,2,0,0,1,197.6,64.75Z" style="fill:#dbdbdb"></path><path d="M196.58,65.63a.41.41,0,0,1-.41.41.41.41,0,0,1-.42-.41.42.42,0,0,1,.42-.42A.41.41,0,0,1,196.58,65.63Z" style="fill:#dbdbdb"></path></g><path d="M170.9,63.8a1.21,1.21,0,1,1,1.21,1.2A1.21,1.21,0,0,1,170.9,63.8Z" style="fill:#dbdbdb"></path><path d="M174.7,63.8a1.21,1.21,0,1,1,1.21,1.2A1.21,1.21,0,0,1,174.7,63.8Z" style="fill:#dbdbdb"></path><path d="M178.5,63.8a1.21,1.21,0,1,1,1.2,1.2A1.21,1.21,0,0,1,178.5,63.8Z" style="fill:#dbdbdb"></path><path d="M182.3,63.8a1.21,1.21,0,1,1,1.2,1.2A1.21,1.21,0,0,1,182.3,63.8Z" style="fill:#dbdbdb"></path><path d="M186.09,63.8A1.21,1.21,0,1,1,187.3,65,1.21,1.21,0,0,1,186.09,63.8Z" style="fill:#dbdbdb"></path><path d="M327.3,66.43h-9.82V61.88h9.82Zm-9.32-.5h8.82V62.38H318Z" style="fill:#dbdbdb"></path><rect x="318.3" y="62.65" width="6.33" height="3" style="fill:#dbdbdb"></rect><rect x="327.3" y="62.94" width="0.87" height="2.43" style="fill:#dbdbdb"></rect><path d="M259.55,59.76H240.44a1.18,1.18,0,0,1-1.18-1.18h0a1.18,1.18,0,0,1,1.18-1.18h19.11a1.18,1.18,0,0,1,1.18,1.18h0A1.18,1.18,0,0,1,259.55,59.76Z" style="fill:#fff"></path><rect x="185.51" y="246.74" width="130.66" height="0.67" style="fill:#c7c7c7"></rect><path d="M208.61,247.07a1.88,1.88,0,1,1-1.88-1.88A1.89,1.89,0,0,1,208.61,247.07Z" style="fill:#c7c7c7"></path><path d="M185.77,250.91A1.63,1.63,0,0,1,186,250a.81.81,0,0,1,1.42,0,1.63,1.63,0,0,1,.26.92,1.61,1.61,0,0,1-.26.92.8.8,0,0,1-1.42,0A1.61,1.61,0,0,1,185.77,250.91Zm1.52,0a1.24,1.24,0,0,0-.19-.68.39.39,0,0,0-.72,0,1.24,1.24,0,0,0-.19.68,1.22,1.22,0,0,0,.19.68.39.39,0,0,0,.72,0A1.22,1.22,0,0,0,187.29,250.91Z" style="fill:#c7c7c7"></path><path d="M188.86,250.18a.29.29,0,0,1,.29.29.29.29,0,0,1-.57,0A.29.29,0,0,1,188.86,250.18Zm0,1.53a.29.29,0,1,1-.28.29A.29.29,0,0,1,188.86,251.71Z" style="fill:#c7c7c7"></path><path d="M191.48,251.54a.22.22,0,0,1-.22.22h0v.29a.21.21,0,0,1-.42,0v-.29h-1.21a.24.24,0,0,1-.14,0,.22.22,0,0,1,0-.3l1.42-1.77h.1s0,0,0,0h.14l0,0h0v0h0a0,0,0,0,1,0,0h0s0,0,0,0v0h0v1.55h0A.22.22,0,0,1,191.48,251.54Zm-.68-1.16-.77,1h.77Z" style="fill:#c7c7c7"></path><path d="M193.77,251.34a.92.92,0,0,1-1.84,0,.9.9,0,0,1,.41-.76.65.65,0,0,1-.13-.38.64.64,0,0,1,.64-.63.63.63,0,0,1,.63.63.64.64,0,0,1-.12.38A.92.92,0,0,1,193.77,251.34Zm-.42,0a.5.5,0,0,0-.5-.5.51.51,0,0,0-.5.5.5.5,0,0,0,.5.5A.5.5,0,0,0,193.35,251.34Zm-.72-1.14a.22.22,0,0,0,.22.22.22.22,0,0,0,0-.44A.22.22,0,0,0,192.63,250.2Z" style="fill:#c7c7c7"></path><path d="M307.1,251.08a.23.23,0,0,1,.23-.23h.72a.23.23,0,0,1,0,.46h-.72A.23.23,0,0,1,307.1,251.08Z" style="fill:#c7c7c7"></path><path d="M310.08,250.62a1,1,0,0,1-.67,1.64,1,1,0,0,1-.68-.28.23.23,0,0,1,0-.31.21.21,0,0,1,.31,0,.51.51,0,0,0,.37.15.51.51,0,0,0,.36-.15.52.52,0,0,0,.16-.37.49.49,0,0,0-.16-.37.51.51,0,0,0-.36-.15.24.24,0,0,1-.16-.07h0a.21.21,0,0,1,0-.3l.39-.4H309a.22.22,0,1,1,0-.44h1.13a.22.22,0,0,1,.22.22.3.3,0,0,1,0,.1l0,.06-.49.5A.71.71,0,0,1,310.08,250.62Z" style="fill:#c7c7c7"></path><path d="M311.34,250.18a.29.29,0,0,1,.29.29.29.29,0,0,1-.58,0A.29.29,0,0,1,311.34,250.18Zm0,1.53a.29.29,0,1,1-.29.29A.29.29,0,0,1,311.34,251.71Z" style="fill:#c7c7c7"></path><path d="M313.63,252.05a.21.21,0,0,1-.21.21h-1.37a.2.2,0,0,1-.16-.07.22.22,0,0,1,0-.3l1.14-1a.49.49,0,0,0,.16-.37.54.54,0,0,0-.12-.34.5.5,0,0,0-.37-.16.55.55,0,0,0-.34.13l-.12.11a.21.21,0,1,1-.28-.32l.12-.11a.93.93,0,0,1,1.3.07.92.92,0,0,1-.06,1.3l-.73.66h.82A.21.21,0,0,1,313.63,252.05Z" style="fill:#c7c7c7"></path><path d="M315.9,252.05a.21.21,0,0,1-.21.21h-1.38a.19.19,0,0,1-.15-.07.21.21,0,0,1,0-.3l1.14-1a.49.49,0,0,0,.16-.37.5.5,0,0,0-.13-.34A.49.49,0,0,0,315,250a.51.51,0,0,0-.33.13l-.12.11a.21.21,0,0,1-.3,0,.22.22,0,0,1,0-.3l.12-.11a.92.92,0,0,1,.62-.23.93.93,0,0,1,.69.3.91.91,0,0,1,.24.62.92.92,0,0,1-.31.68l-.72.66h.82A.22.22,0,0,1,315.9,252.05Z" style="fill:#c7c7c7"></path><rect x="201.61" y="95.98" width="98.46" height="98.46" style="fill:#AEECA0"></rect><rect x="201.61" y="95.98" width="98.46" height="98.46" style="fill:#AEECA0"></rect><path d="M239.69,177.58a10.52,10.52,0,1,1-10.52-10.52A10.52,10.52,0,0,1,239.69,177.58Z" style="fill:#fff"></path><rect x="231.65" y="124.59" width="8.03" height="52.87" style="fill:#fff"></rect><path d="M273.73,162.28a10.52,10.52,0,1,1-10.52-10.52A10.52,10.52,0,0,1,273.73,162.28Z" style="fill:#fff"></path><rect x="265.7" y="109.29" width="8.03" height="52.87" style="fill:#fff"></rect><polygon points="273.74 109.4 231.65 131.66 231.65 124.59 273.74 102.33 273.74 109.4" style="fill:#fff"></polygon><polygon points="273.74 122.72 231.65 144.98 231.65 137.91 273.74 115.65 273.74 122.72" style="fill:#fff"></polygon><rect x="231.05" y="200.76" width="39.6" height="2.52" style="fill:#37474f"></rect><rect x="241.94" y="205.76" width="17.82" height="1.98" style="fill:#a6a6a6"></rect><polygon points="294.56 232.71 294.56 223.98 303.52 228.34 294.56 232.71" style="fill:#AEECA0"></polygon><polygon points="287.4 232.71 287.4 223.98 296.36 228.34 287.4 232.71" style="fill:#AEECA0"></polygon><polygon points="207.12 223.98 207.12 232.71 198.16 228.34 207.12 223.98" style="fill:#AEECA0"></polygon><polygon points="214.29 223.98 214.29 232.71 205.33 228.34 214.29 223.98" style="fill:#AEECA0"></polygon><rect x="244.35" y="220.62" width="3.99" height="15.45" style="fill:#AEECA0"></rect><rect x="251.66" y="220.62" width="3.99" height="15.45" style="fill:#AEECA0"></rect><path d="M310.62,267.61a.57.57,0,0,1-.57.58.58.58,0,1,1,0-1.15A.57.57,0,0,1,310.62,267.61Z" style="fill:#a6a6a6"></path><path d="M313.31,267.61a.58.58,0,0,1-.58.58.58.58,0,0,1,0-1.15A.58.58,0,0,1,313.31,267.61Z" style="fill:#a6a6a6"></path><path d="M316,267.61a.58.58,0,1,1-.57-.57A.58.58,0,0,1,316,267.61Z" style="fill:#a6a6a6"></path><rect x="185.51" y="274.9" width="19.81" height="19.81" style="fill:#AEECA0"></rect><rect x="185.51" y="274.9" width="19.81" height="19.81" style="fill:#AEECA0"></rect><path d="M193.18,291.32a2.12,2.12,0,1,1-2.12-2.12A2.11,2.11,0,0,1,193.18,291.32Z" style="fill:#fff"></path><rect x="191.56" y="280.66" width="1.62" height="10.64" style="fill:#fff"></rect><circle cx="197.91" cy="288.24" r="2.12" style="fill:#fff"></circle><rect x="198.41" y="277.58" width="1.62" height="10.64" style="fill:#fff"></rect><polygon points="200.03 277.6 191.56 282.08 191.56 280.65 200.03 276.18 200.03 277.6" style="fill:#fff"></polygon><polygon points="200.03 280.28 191.56 284.76 191.56 283.34 200.03 278.86 200.03 280.28" style="fill:#fff"></polygon><polygon points="173.69 262.71 192.77 262.59 211.85 262.55 250 262.46 288.15 262.55 307.23 262.59 326.31 262.71 307.23 262.84 288.15 262.88 250 262.96 211.85 262.88 192.77 262.84 173.69 262.71" style="fill:#ebebeb"></polygon><polygon points="173.69 297.19 192.77 297.07 211.85 297.03 250 296.94 288.15 297.03 307.23 297.07 326.31 297.19 307.23 297.31 288.15 297.36 250 297.44 211.85 297.36 192.77 297.31 173.69 297.19" style="fill:#ebebeb"></polygon><path d="M187.15,267.9h-.6V269a.27.27,0,0,1-.53,0v-2.86a.26.26,0,0,1,.26-.26h.87a1,1,0,1,1,0,2.07Zm-.6-.54h.6a.5.5,0,1,0,0-1h-.6Z" style="fill:#a6a6a6"></path><path d="M189.08,265.83a.27.27,0,0,1,.27.26V269a.27.27,0,0,1-.53,0v-2.86A.26.26,0,0,1,189.08,265.83Z" style="fill:#a6a6a6"></path><path d="M192,268V269a.25.25,0,0,1-.25.25.27.27,0,0,1-.26-.2,1.08,1.08,0,0,1-.64.2,1.11,1.11,0,0,1-.82-.35,1.26,1.26,0,0,1,0-1.7,1.13,1.13,0,0,1,.82-.37,1.1,1.1,0,0,1,.64.22.28.28,0,0,1,.26-.22.26.26,0,0,1,.25.27Zm-.51,0a.7.7,0,0,0-.19-.5.61.61,0,0,0-.9,0,.74.74,0,0,0-.18.5.76.76,0,0,0,.18.5.63.63,0,0,0,.9,0A.72.72,0,0,0,191.52,268Z" style="fill:#a6a6a6"></path><path d="M195,267.05v1.83a1.14,1.14,0,0,1-1.65,1,.26.26,0,0,1-.13-.35.27.27,0,0,1,.35-.1.67.67,0,0,0,.28.06.64.64,0,0,0,.6-.44.9.9,0,0,1-.46.12,1,1,0,0,1-1-1v-1.14a.26.26,0,0,1,.25-.26.26.26,0,0,1,.26.26v1.14a.5.5,0,0,0,.5.5.5.5,0,0,0,.5-.5v-1.14a.26.26,0,0,1,.25-.26A.26.26,0,0,1,195,267.05Z" style="fill:#a6a6a6"></path><path d="M196.5,266.19a.26.26,0,1,1-.52,0v-.1a.26.26,0,0,1,.52,0Zm0,.88V269a.26.26,0,0,1-.52,0v-1.88a.26.26,0,1,1,.52,0Z" style="fill:#a6a6a6"></path><path d="M199.35,267.8V269a.25.25,0,0,1-.25.25.26.26,0,0,1-.26-.25V267.8a.5.5,0,0,0-.5-.49.49.49,0,0,0-.49.49V269a.11.11,0,0,1,0,.05.26.26,0,0,1-.25.2.25.25,0,0,1-.26-.25v-1.91a.26.26,0,0,1,.26-.26.27.27,0,0,1,.24.16.88.88,0,0,1,.51-.16A1,1,0,0,1,199.35,267.8Z" style="fill:#a6a6a6"></path><path d="M202.46,268v.9a1.17,1.17,0,0,1-1.16,1.16,1.1,1.1,0,0,1-.51-.12.26.26,0,0,1-.12-.35.27.27,0,0,1,.35-.12.64.64,0,0,0,.28.07.65.65,0,0,0,.63-.52,1.12,1.12,0,0,1-1.45-.17,1.23,1.23,0,0,1-.34-.86,1.27,1.27,0,0,1,.34-.86,1.16,1.16,0,0,1,.82-.36,1.1,1.1,0,0,1,.65.21.26.26,0,0,1,.51.05v1Zm-.52,0a.79.79,0,0,0-.18-.49.64.64,0,0,0-.46-.21.62.62,0,0,0-.45.21.74.74,0,0,0-.19.49.71.71,0,0,0,.19.5.61.61,0,0,0,.45.2.63.63,0,0,0,.46-.2A.75.75,0,0,0,201.94,268Z" style="fill:#a6a6a6"></path><path d="M207,267.8V269a.26.26,0,0,1-.51,0V267.8a.5.5,0,0,0-.51-.49.48.48,0,0,0-.48.49V269a.11.11,0,0,1,0,.05.26.26,0,0,1-.26.2.25.25,0,0,1-.25-.25v-1.91a.26.26,0,0,1,.25-.26.25.25,0,0,1,.24.16.93.93,0,0,1,.51-.16A1,1,0,0,1,207,267.8Z" style="fill:#a6a6a6"></path><path d="M207.73,268a1.21,1.21,0,0,1,1.18-1.21,1.16,1.16,0,0,1,1.17,1.13v0s0,0,0,.05a.23.23,0,0,1-.25.19h-1.53a.58.58,0,0,0,.16.32.8.8,0,0,0,.46.22.78.78,0,0,0,.51-.13.27.27,0,0,1,.36,0,.22.22,0,0,1,0,.31,1.22,1.22,0,0,1-.87.32A1.2,1.2,0,0,1,207.73,268Zm.53-.23h1.37a.79.79,0,0,0-.72-.52A.68.68,0,0,0,208.26,267.77Z" style="fill:#a6a6a6"></path><path d="M212.45,267.22l-.58.79.58.8a.26.26,0,0,1,0,.35.3.3,0,0,1-.15,0,.34.34,0,0,1-.22-.1l-.48-.67-.48.67a.3.3,0,0,1-.2.1.3.3,0,0,1-.16,0,.25.25,0,0,1-.05-.35l.58-.8-.58-.79a.24.24,0,0,1,.05-.34.26.26,0,0,1,.36.05l.48.65.48-.65a.27.27,0,0,1,.37-.05A.25.25,0,0,1,212.45,267.22Z" style="fill:#a6a6a6"></path><path d="M214.55,267.06a.28.28,0,0,1-.27.27h-.12v1.35a.26.26,0,0,1,.26.27.25.25,0,0,1-.26.26.54.54,0,0,1-.54-.53v-1.35h-.14a.27.27,0,1,1,0-.54h.14v-.7a.27.27,0,0,1,.54,0v.7h.12A.28.28,0,0,1,214.55,267.06Z" style="fill:#a6a6a6"></path><rect x="309.52" y="274.9" width="6.47" height="0.85" style="fill:#a6a6a6"></rect><rect x="309.52" y="276.6" width="6.47" height="0.85" style="fill:#a6a6a6"></rect><rect x="309.52" y="278.31" width="6.47" height="0.85" style="fill:#a6a6a6"></rect><rect x="210.08" y="275.33" width="39.91" height="2.13" style="fill:#a6a6a6"></rect><rect x="210.08" y="279.59" width="22.64" height="1.07" style="fill:#c7c7c7"></rect><rect x="185.51" y="299.6" width="19.81" height="19.81" style="fill:#AEECA0"></rect><rect x="185.51" y="299.6" width="19.81" height="19.81" style="fill:#455a64"></rect><path d="M193.18,316a2.12,2.12,0,1,1-2.12-2.11A2.12,2.12,0,0,1,193.18,316Z" style="fill:#fff"></path><rect x="191.56" y="305.35" width="1.62" height="10.64" style="fill:#fff"></rect><path d="M200,312.94a2.12,2.12,0,1,1-2.12-2.12A2.12,2.12,0,0,1,200,312.94Z" style="fill:#fff"></path><rect x="198.41" y="302.27" width="1.62" height="10.64" style="fill:#fff"></rect><polygon points="200.03 302.29 191.56 306.77 191.56 305.35 200.03 300.87 200.03 302.29" style="fill:#fff"></polygon><polygon points="200.03 304.98 191.56 309.45 191.56 308.03 200.03 303.55 200.03 304.98" style="fill:#fff"></polygon><rect x="309.52" y="299.6" width="6.47" height="0.85" style="fill:#a6a6a6"></rect><rect x="309.52" y="301.3" width="6.47" height="0.85" style="fill:#a6a6a6"></rect><rect x="309.52" y="303" width="6.47" height="0.85" style="fill:#a6a6a6"></rect><rect x="210.08" y="300.02" width="39.91" height="2.13" style="fill:#a6a6a6"></rect><rect x="210.08" y="304.29" width="22.64" height="1.07" style="fill:#c7c7c7"></rect><polygon points="173.69 321.69 192.77 321.57 211.85 321.52 250 321.44 288.15 321.52 307.23 321.57 326.31 321.69 307.23 321.81 288.15 321.86 250 321.94 211.85 321.86 192.77 321.81 173.69 321.69" style="fill:#ebebeb"></polygon><rect x="185.51" y="324.09" width="19.81" height="19.81" style="fill:#AEECA0"></rect><rect x="185.51" y="324.09" width="19.81" height="19.81" style="fill:#c7c7c7"></rect><path d="M193.18,340.51a2.12,2.12,0,1,1-2.12-2.11A2.12,2.12,0,0,1,193.18,340.51Z" style="fill:#fff"></path><rect x="191.56" y="329.85" width="1.62" height="10.64" style="fill:#fff"></rect><path d="M200,337.43a2.12,2.12,0,1,1-2.12-2.11A2.12,2.12,0,0,1,200,337.43Z" style="fill:#fff"></path><rect x="198.41" y="326.77" width="1.62" height="10.64" style="fill:#fff"></rect><polygon points="200.03 326.79 191.56 331.27 191.56 329.85 200.03 325.37 200.03 326.79" style="fill:#fff"></polygon><polygon points="200.03 329.47 191.56 333.95 191.56 332.53 200.03 328.05 200.03 329.47" style="fill:#fff"></polygon><rect x="309.52" y="324.09" width="6.47" height="0.85" style="fill:#a6a6a6"></rect><rect x="309.52" y="325.8" width="6.47" height="0.85" style="fill:#a6a6a6"></rect><rect x="309.52" y="327.5" width="6.47" height="0.85" style="fill:#a6a6a6"></rect><rect x="210.08" y="324.52" width="39.91" height="2.13" style="fill:#a6a6a6"></rect><rect x="210.08" y="328.78" width="22.64" height="1.07" style="fill:#c7c7c7"></rect><polygon points="173.69 346.19 192.77 346.06 211.85 346.02 250 345.94 288.15 346.02 307.23 346.06 326.31 346.19 307.23 346.31 288.15 346.35 250 346.44 211.85 346.35 192.77 346.31 173.69 346.19" style="fill:#ebebeb"></polygon><rect x="185.51" y="348.59" width="19.81" height="19.81" style="fill:#AEECA0"></rect><rect x="185.51" y="348.59" width="19.81" height="19.81" style="fill:#AEECA0"></rect><path d="M193.18,365a2.12,2.12,0,1,1-2.12-2.12A2.11,2.11,0,0,1,193.18,365Z" style="fill:#fff"></path><rect x="191.56" y="354.35" width="1.62" height="10.64" style="fill:#fff"></rect><path d="M200,361.93a2.12,2.12,0,1,1-2.12-2.12A2.12,2.12,0,0,1,200,361.93Z" style="fill:#fff"></path><rect x="198.41" y="351.27" width="1.62" height="10.64" style="fill:#fff"></rect><polygon points="200.03 351.29 191.56 355.77 191.56 354.35 200.03 349.87 200.03 351.29" style="fill:#fff"></polygon><polygon points="200.03 353.97 191.56 358.45 191.56 357.03 200.03 352.55 200.03 353.97" style="fill:#fff"></polygon><rect x="309.52" y="348.59" width="6.47" height="0.85" style="fill:#a6a6a6"></rect><rect x="309.52" y="350.29" width="6.47" height="0.85" style="fill:#a6a6a6"></rect><rect x="309.52" y="352" width="6.47" height="0.85" style="fill:#a6a6a6"></rect><rect x="210.08" y="349.02" width="39.91" height="2.13" style="fill:#a6a6a6"></rect><rect x="210.08" y="353.28" width="22.64" height="1.07" style="fill:#c7c7c7"></rect><polygon points="173.69 370.68 192.77 370.56 211.85 370.52 250 370.43 288.15 370.52 307.23 370.56 326.31 370.68 307.23 370.81 288.15 370.85 250 370.93 211.85 370.85 192.77 370.81 173.69 370.68" style="fill:#ebebeb"></polygon><rect x="185.51" y="373.09" width="19.81" height="19.81" style="fill:#AEECA0"></rect><rect x="185.51" y="373.09" width="19.81" height="19.81" style="fill:#37474f"></rect><path d="M193.18,389.51a2.12,2.12,0,1,1-2.12-2.12A2.12,2.12,0,0,1,193.18,389.51Z" style="fill:#fff"></path><rect x="191.56" y="378.84" width="1.62" height="10.64" style="fill:#fff"></rect><path d="M200,386.43a2.12,2.12,0,1,1-2.12-2.12A2.11,2.11,0,0,1,200,386.43Z" style="fill:#fff"></path><rect x="198.41" y="375.76" width="1.62" height="10.64" style="fill:#fff"></rect><polygon points="200.03 375.79 191.56 380.26 191.56 378.84 200.03 374.36 200.03 375.79" style="fill:#fff"></polygon><polygon points="200.03 378.47 191.56 382.95 191.56 381.52 200.03 377.05 200.03 378.47" style="fill:#fff"></polygon><rect x="309.52" y="373.09" width="6.47" height="0.85" style="fill:#a6a6a6"></rect><rect x="309.52" y="374.79" width="6.47" height="0.85" style="fill:#a6a6a6"></rect><rect x="309.52" y="376.5" width="6.47" height="0.85" style="fill:#a6a6a6"></rect><rect x="210.08" y="373.51" width="39.91" height="2.13" style="fill:#a6a6a6"></rect><rect x="210.08" y="377.78" width="22.64" height="1.07" style="fill:#c7c7c7"></rect></g><g id="freepik--Character--inject-2"><polygon points="353.29 431.22 353.13 435.71 351.36 469.3 349.36 469.3 347.59 435.71 347.43 431.22 353.29 431.22" style="fill:#455a64"></polygon><polygon points="347.43 431.22 353.29 431.22 353.13 435.71 347.59 435.71 347.43 431.22" style="fill:#263238"></polygon><polygon points="368.18 431.22 368.02 435.71 366.25 469.3 364.25 469.3 362.48 435.71 362.32 431.22 368.18 431.22" style="fill:#455a64"></polygon><polygon points="362.32 431.22 368.18 431.22 368.02 435.71 362.48 435.71 362.32 431.22" style="fill:#263238"></polygon><polygon points="424.56 431.22 424.4 435.71 422.63 469.3 420.63 469.3 418.86 435.71 418.7 431.22 424.56 431.22" style="fill:#455a64"></polygon><polygon points="418.7 431.22 424.56 431.22 424.4 435.71 418.86 435.71 418.7 431.22" style="fill:#263238"></polygon><polygon points="439.45 431.22 439.29 435.71 437.51 469.3 435.52 469.3 433.74 435.71 433.58 431.22 439.45 431.22" style="fill:#455a64"></polygon><polygon points="433.58 431.22 439.45 431.22 439.29 435.71 433.74 435.71 433.58 431.22" style="fill:#263238"></polygon><rect x="343.41" y="420.98" width="100.06" height="10.24" style="fill:#455a64"></rect><path d="M80.08,460.33l153.46.66c37.3-29.29,41.15-72.68,14.54-99-16.1-15.91-36.55-12.7-56-15.23H192A57.37,57.37,0,0,1,172.24,341c-20.05-10.58-31.35-35.53-48.22-56.52q-3.15-4-6.6-7.66C103.54,262,75.94,261.5,61.49,282.32,24.8,335.23,41.61,414,80.08,460.33Z" style="fill:#dbdbdb"></path><path d="M76.68,339.26c4,63,76.72,86.47,122.14,67.61,39.48-16.41,26.56-53.84-6.77-60.1H192A57.37,57.37,0,0,1,172.24,341c-20.05-10.58-31.35-35.53-48.22-56.52C98.89,271.39,73.73,293.16,76.68,339.26Z" style="fill:#c7c7c7"></path><path d="M328.25,385.15l39.86,18.66c7,5.08,13.28,9.42,16.73,11.36a.09.09,0,0,0,.05,0,6.05,6.05,0,0,0,2.55,1.05h.07c2.93-1.06,45.23-56.05,46.06-58.46s-6-5-9.33-4.15-29,14.65-29,14.65L355.21,350Z" style="fill:#d3766a"></path><path d="M433.57,357.77c-.83,2.41-43.13,57.41-46.05,58.47,0,0,0,0-.08,0a6.13,6.13,0,0,1-2.55-1.06l-.06,0c-3.44-1.94-9.69-6.28-16.72-11.36l-6.93-3.25,26.59-35.71,7.5,3.43s25.61-13.81,29-14.65S434.41,355.35,433.57,357.77Z" style="fill:#ebebeb"></path><path d="M433.57,357.78c-.83,2.41-43.12,57.4-46.06,58.47-1.11.42-9.48-5.27-19.4-12.45l-.31-.22,26.89-35.78.59.48s25.6-13.81,29-14.65S434.41,355.36,433.57,357.78Z" style="fill:#AEECA0"></path><path d="M367.8,403.58a2.26,2.26,0,0,1,.31.23c9.92,7.17,18.28,12.86,19.4,12.44.94-.35,5.91-6.21,12.27-14.11l6.86-39.9c-6.08,3.19-11.36,6-11.36,6l-.58-.48Z" style="opacity:0.1"></path><path d="M431,356.76c-7.36,9.09-36.17,46.46-42.75,56-.06.08,0,.12.06.05,7.48-8.86,36-46.46,42.84-55.95C431.26,356.67,431.11,356.57,431,356.76Z" style="fill:#263238"></path><path d="M397.68,365.38c-3.48,3.12-6.36,8-5.9,12.8,0,.18.28.16.33,0a64.88,64.88,0,0,1,6-12.44A.29.29,0,0,0,397.68,365.38Z" style="fill:#263238"></path><path d="M401.29,364c-3.48,3.12-6.35,8-5.9,12.8,0,.18.28.15.34,0a65.21,65.21,0,0,1,6-12.45A.29.29,0,0,0,401.29,364Z" style="fill:#263238"></path><path d="M404.9,362.55c-3.48,3.13-6.35,8-5.9,12.8,0,.19.28.16.34,0a64.84,64.84,0,0,1,6-12.44A.3.3,0,0,0,404.9,362.55Z" style="fill:#263238"></path><path d="M141.06,336.23c.81.26,23.13,9.61,28.45,11.11,1.59.45,82.25-28.29,103-28,30.08.46,114.41,42.42,114.41,42.42l-22.66,43.79S288.89,368,268.57,367.31c-10.15-.36-72,22.66-102.78,26.61-38,4.89-54.93-22.22-54.93-22.22S136.85,341.15,141.06,336.23Z" style="fill:#37474f"></path><path d="M376.18,358.91c-3.5,6.59-2.59,4.65-6,11.28-1.68,3.25-12.67,24.59-13.7,27.89a.08.08,0,0,0,.14.06c2-2.79,12.65-24.31,14.27-27.59,3.29-6.7,2.27-4.81,5.49-11.54A.11.11,0,0,0,376.18,358.91Z" style="fill:#263238"></path><path d="M353.28,391.54q-14.37-6.3-28.87-12.29c-9.65-4-19.33-8-29.12-11.63-4.9-1.81-9.82-3.59-14.81-5.07a48.19,48.19,0,0,0-7.57-1.75l-.94-.09-1,0c-.63,0-1.28.12-1.91.17-1.29.17-2.57.38-3.85.63-5.12,1-10.19,2.25-15.25,3.54s-10.1,2.67-15.14,4.05l-30.26,8.31c-10.08,2.76-20.17,5.52-30.35,8a133.5,133.5,0,0,1-15.43,3c-5.3.48-10.54-.8-15.48-2.49a98.34,98.34,0,0,1-14.29-6.5,139.54,139.54,0,0,1-13.33-8.27,135.4,135.4,0,0,0,13.45,8.05,96.41,96.41,0,0,0,14.33,6.26c4.92,1.64,10.1,2.88,15.27,2.37a130.64,130.64,0,0,0,15.32-3.08c10.15-2.51,20.22-5.32,30.29-8.13l30.21-8.47c5-1.36,10.11-2.7,15.19-4s10.16-2.51,15.32-3.47c1.29-.24,2.59-.44,3.9-.61.66-.05,1.31-.17,2-.17l1,0,1,.09a49.49,49.49,0,0,1,7.69,1.83c5,1.51,9.93,3.32,14.83,5.16,9.79,3.71,19.46,7.71,29.08,11.8S343.77,387.19,353.28,391.54Z" style="fill:#263238"></path><path d="M321.11,413.67,365,416.43c8.4,2.15,15.81,3.9,19.73,4.44h.06a6.27,6.27,0,0,0,2.76.05s.05,0,.06,0c2.34-2.07,21.55-68.73,21.44-71.28s-7.39-2.43-10.2-.43-21.59,24.23-21.59,24.23l-44-2.32Z" style="fill:#d3766a"></path><path d="M409.08,349.61c.12,2.55-19.09,69.22-21.43,71.28,0,0,0,0-.07,0a6.06,6.06,0,0,1-2.75-.05h-.07c-3.91-.54-11.31-2.29-19.72-4.44l-7.64-.49,11.67-43,8.23.43s18.77-22.22,21.59-24.24S409,347.05,409.08,349.61Z" style="fill:#ebebeb"></path><path d="M409.09,349.61c.11,2.56-19.1,69.21-21.44,71.28-.88.8-10.75-1.43-22.61-4.47l-.37-.1,11.91-43.14.73.23s18.76-22.23,21.58-24.23S409,347.06,409.09,349.61Z" style="fill:#AEECA0"></path><path d="M406.29,349.62c-3.52,11.16-16.64,56.49-19.26,67.78,0,.09,0,.11.07,0,3.72-11,16.47-56.41,19.37-67.74C406.53,349.44,406.36,349.39,406.29,349.62Z" style="fill:#263238"></path><path d="M378.48,369.83c-2.1,4.19-3,9.79-.8,14.08.08.16.32,0,.31-.12A65.07,65.07,0,0,1,379,370,.29.29,0,0,0,378.48,369.83Z" style="fill:#263238"></path><path d="M381.32,367.2c-2.1,4.18-3,9.78-.8,14.07.08.17.32,0,.31-.11a65,65,0,0,1,1.05-13.78A.3.3,0,0,0,381.32,367.2Z" style="fill:#263238"></path><path d="M384.17,364.56c-2.1,4.18-3,9.79-.81,14.07.09.17.32.05.32-.11a64.33,64.33,0,0,1,1-13.78A.29.29,0,0,0,384.17,364.56Z" style="fill:#263238"></path><path d="M135.89,342.25c.8.26,33.11,13.24,33.72,14.57.68,1.51,3.4,9.6,4.1,12,0,0,94.83-4.72,99.36-4.61,18.32.41,32.31,3.62,103.74,8.19l-12.45,45.83s-84.1-7.87-112.52-9c-24.37-1-98.66.31-98.66.31-46,.25-50.74-31.74-50.74-31.74S135.86,342.23,135.89,342.25Z" style="fill:#37474f"></path><path d="M366,372.66c-2,7.19-1.53,5.1-3.44,12.31-.93,3.53-7.06,26.73-7.36,30.18,0,.08.12.11.15,0,1.39-3.17,7.11-26.48,8-30,1.77-7.25,1.19-5.19,2.88-12.46A.11.11,0,0,0,366,372.66Z" style="fill:#263238"></path><path d="M173.8,355.86a91.21,91.21,0,0,0-.54,15.76.16.16,0,0,0,.32,0c.34-5.23.8-10.5.85-15.74A.32.32,0,0,0,173.8,355.86Z" style="fill:#263238"></path><path d="M142.44,345.23c-.16-.05-.31.2-.14.27,5.32,2.1,9.84,4.32,14.62,6.76,2.21,1.14,14.18,8.11,11.64,11.72-.42.61-1.21.69-2.26.39a17.66,17.66,0,0,1-3.69-2.11c-2.48-1.51-5-2.94-7.6-4.25a78.44,78.44,0,0,0-15.1-5.9.14.14,0,1,0-.09.26A148.84,148.84,0,0,1,160.09,362c3.1,1.83,7.41,5.5,9.31,2.25s-5.48-8.95-7.59-10.3A82.16,82.16,0,0,0,142.44,345.23Z" style="fill:#263238"></path><path d="M169,364a24.92,24.92,0,0,0,2.27,2,6.41,6.41,0,0,0,2,1.24c.14,0,.23-.14.17-.25a8.38,8.38,0,0,0-1.74-1.78c-.69-.63-1.37-1.28-2.08-1.89A.48.48,0,0,0,169,364Z" style="fill:#263238"></path><path d="M273.69,363.7c-7.08-.36-98.77,5-100,5.14-.12,0-.09.32,0,.32,4.19.07,93.55-4.74,99.84-4.24,4.5.36,98.67,7.33,103.17,7.6.12,0,.14-.2,0-.22C368.82,371,274.64,363.75,273.69,363.7Z" style="fill:#263238"></path><path d="M308.48,405.46c-15.19-1.41-30.44-2.31-45.68-2.85s-30.66-.69-46-.42-30.65,1-45.94,2.15a184.31,184.31,0,0,1-21.79.77c-7.18-.33-17-2.36-23-6.48-13.3-9.14-18-19.91-20.4-22.11-.09-.09-.21,0-.14.14,9.62,14.49,20.26,32.94,57.78,29.13,9-.91,15.11-1,22.68-1.38q11.64-.59,23.3-.86c15.4-.36,30.8-.39,46.2,0s30.79,1.22,46.14,2.42,30.76,2.89,46.13,4.53c2,.21,4,.49,6,.76.11,0,.15-.15,0-.17C338.71,408.9,323.65,406.88,308.48,405.46Z" style="fill:#263238"></path><path d="M106,299.74c12.43,16.88,41.84,32.56,50,31.14,9.51-1.67,30.66-18.79,36.47-34.21,1.38-3.66-22.22-12.94-24.94-9.77-5.57,6.52-16.73,16.33-17.81,16.71-2.15.76-19.84-6.75-33.69-11.78C98.76,285.57,101,293,106,299.74Z" style="fill:#d3766a"></path><path d="M190.53,300.85s6.15-11.08,4.82-19.6c-.91-5.9-5.59-20.93-22.13-27.51-3.93-1.56-10.63-1-5.14,3.87,3.89,3.47,7.41,4.49,9.31,6.92,0,0-8.44,1.72-9.85,5.71a76.85,76.85,0,0,0-2.94,10.7,18.32,18.32,0,0,0,2,.73s-1,3.85,1.86,9.19Z" style="fill:#d3766a"></path><path d="M155.62,252.15l-1.37,32.54c-.15,1,.46,1.62,1.36,1.43l15.95-3.31a2.62,2.62,0,0,0,1.87-2.1l1.38-32.54c.14-1-.47-1.62-1.36-1.44l-16,3.32A2.62,2.62,0,0,0,155.62,252.15Z" style="fill:#a6a6a6"></path><path d="M157.51,251.74l-1.37,32.54c-.14,1,.46,1.62,1.36,1.44l15.95-3.32a2.64,2.64,0,0,0,1.88-2.1l1.37-32.54c.14-1-.47-1.62-1.36-1.44l-16,3.32A2.62,2.62,0,0,0,157.51,251.74Z" style="fill:#c7c7c7"></path><path d="M162.18,252.25a1.38,1.38,0,1,1-1.61-1.11A1.38,1.38,0,0,1,162.18,252.25Z" style="fill:#263238"></path><path d="M192.33,273.33c-2.39-2-7.54-6.19-12.94-8.14-6-2.17-18.13-4.74-19.68-.29-1.14,3.25,3.4,4.64,3.4,4.64s-5.24,0-5.62,3.16c-.36,2.89,3.23,3.75,3.23,3.75s-3.18.55-3,3.39c.24,3.43,6.86,1.72,10.1,5C168.55,285.56,192.33,273.33,192.33,273.33Z" style="fill:#d3766a"></path><path d="M178.16,271.91a25.38,25.38,0,0,0-14.95-2.46c-.13,0-.18.14-.06.14a62.62,62.62,0,0,1,15,2.37S178.19,271.92,178.16,271.91Z" style="fill:#263238"></path><path d="M175.79,277.89c-2.34-1.08-9.35-2.8-15.06-1.55-.13,0-.18.14,0,.14A66.4,66.4,0,0,1,175.77,278S175.82,277.91,175.79,277.89Z" style="fill:#263238"></path><path d="M166.4,283.78c.51,1.82,1,3.59,1.65,5.3.31.86.69,1.7,1.08,2.52a23.46,23.46,0,0,0,1.42,2.39,9.9,9.9,0,0,1-3.27-4.62,15.57,15.57,0,0,1-.72-2.76A11.17,11.17,0,0,1,166.4,283.78Z" style="fill:#263238"></path><path d="M121.2,316.57l10.14-20.1s-14.19-6.79-23.56-8.28-9.09,4.22-3.23,11.36S121.2,316.57,121.2,316.57Z" style="fill:#AEECA0"></path><path d="M128.65,301.8l-7.45,14.77s-10.79-9.88-16.65-17c-4.4-5.37-5.66-9.93-2-11.23Z" style="opacity:0.1"></path><path d="M126.53,295.12a142.79,142.79,0,0,0-8.9,16.94s.11.1.13.07c2.7-4.47,7.41-13.78,9-16.9C126.76,295.17,126.57,295.07,126.53,295.12Z" style="fill:#263238"></path><path d="M157.08,340.92c-.49,2.11-55.25,47.47-55.76,47.26-1.38-.57-24.44-60.58-13.79-93,1.88-5.71,10.68-9.18,15.7-7.41,11.24,4,38.77,39.11,40.76,41.1C147.68,332.59,157.19,340.42,157.08,340.92Z" style="fill:#AEECA0"></path><path d="M105.53,298.91c-3.51,1.68-11.09-2.57-14.59-6.59-.24-.28-1.68-13.1-2.23-15.61-.12-.51,16.6.37,16.6.37a41.34,41.34,0,0,0,.59,10C106,287.42,108.91,297.28,105.53,298.91Z" style="fill:#d3766a"></path><path d="M105.32,277.08h0c0,.08,0,.41,0,.93,0,.89-.07,2.34,0,4a29.47,29.47,0,0,0,.61,5.07,3.58,3.58,0,0,0,.09.35v.05c.06.21.13.48.21.8a9.68,9.68,0,0,1-1.51.42c-8.62,1.69-13.82-8.21-15.5-12.08h.28c.43,0,1,0,1.69,0h.53c1.11,0,2.43.05,3.8.09.46,0,.91,0,1.37.05l2.91.11,1.17.06,1.18.05.55,0,.25,0,1.39.07.66,0,.28,0h.06Z" style="fill:#263238"></path><path d="M101.45,264.43c1.09,4.06,4.87,6.57,8.43,5.62s5.57-5,4.48-9.09-4.87-6.58-8.43-5.62S100.36,260.36,101.45,264.43Z" style="fill:#455a64"></path><path d="M99.43,265.24c1.21,4.52,5.41,7.32,9.38,6.26s6.19-5.59,5-10.11-5.41-7.32-9.38-6.25S98.22,260.73,99.43,265.24Z" style="fill:#c7c7c7"></path><path d="M83.36,258.22c-.88,5.91,4.53,21.79,9.1,24.84,6.62,4.41,16.25,3.49,19.7-4.18,3.34-7.44-4.08-28-9.06-30.66C95.75,244.33,84.68,249.48,83.36,258.22Z" style="fill:#d3766a"></path><path d="M85.19,272s-6.73-9.28-6.65-15c0-2.58,3.38-4.58,3.38-4.58a5.8,5.8,0,0,1,1.34-6c2.78-3.09,10.14-3.06,10.14-3.06s4.17-7.24,11.1-5.08,3.2,10.12,3.2,10.12,2.75,3.29-3,6.52c-5.63,3.14-17.8,1.52-17.8,1.52a41.92,41.92,0,0,1,.84,12.4A3.83,3.83,0,0,1,85.19,272Z" style="fill:#263238"></path><path d="M94.57,243.44a11.76,11.76,0,0,0-4.79-.47,12.86,12.86,0,0,0-4.19,1c-2.34,1.07-4.34,3-4.52,5.71a4.9,4.9,0,0,0,1.24,3.63s.1,0,.06-.07c-1.71-1.79-1.14-4.84.32-6.58,1.66-2,4.38-2.89,6.86-3.2a20.84,20.84,0,0,1,5,.11A.07.07,0,0,0,94.57,243.44Z" style="fill:#263238"></path><path d="M109.57,241.2a5.77,5.77,0,0,0-4.28-3.33,9.82,9.82,0,0,0-6.33.75,12.41,12.41,0,0,0-4.87,4.28s0,.08.07,0a10.88,10.88,0,0,1,10-4.71A5.31,5.31,0,0,1,109,245.8a11.05,11.05,0,0,1-4,4.67s0,.09,0,.06a11.33,11.33,0,0,0,4-4A6.46,6.46,0,0,0,109.57,241.2Z" style="fill:#263238"></path><path d="M106.14,255.19a20.17,20.17,0,0,1-8.31,2.16,40.8,40.8,0,0,1-9-.48c-1.73-.26-3.45-.6-5.16-1,0,0-.07.07,0,.08A45.12,45.12,0,0,0,93,258a22.7,22.7,0,0,0,8.75-.8,19.58,19.58,0,0,0,4.43-2S106.18,255.18,106.14,255.19Z" style="fill:#263238"></path><path d="M89,271s-4.58-4.64-6.75-2.92,1.89,8.87,4.88,9.44a2.9,2.9,0,0,0,3.57-2.18Z" style="fill:#d3766a"></path><path d="M83.46,270.07a0,0,0,0,0,0,.08c2.11.46,3.45,2.11,4.5,3.88a1.6,1.6,0,0,0-2.43,0c0,.05,0,.12.07.1a1.76,1.76,0,0,1,2,.29,8,8,0,0,1,1.19,1.4c.13.16.43,0,.33-.18l0,0C88.74,273,86.19,269.87,83.46,270.07Z" style="fill:#263238"></path><path d="M97.12,263.21c.45-.27.83-.59,1.25-.9s.88-.58,1.09-1.16a.79.79,0,0,0-.4-.88,2,2,0,0,0-2,.37,2.86,2.86,0,0,0-1.23,1.66A.84.84,0,0,0,97.12,263.21Z" style="fill:#263238"></path><path d="M108.37,260a13.21,13.21,0,0,1-1.54.05,2.43,2.43,0,0,1-1.57-.24.79.79,0,0,1-.23-.94,2,2,0,0,1,1.77-.91,2.84,2.84,0,0,1,2,.56A.84.84,0,0,1,108.37,260Z" style="fill:#263238"></path><path d="M101.73,275.87c.34.18.71.46,1.12.37a3,3,0,0,0,1.11-.63,0,0,0,0,1,.07.05,1.56,1.56,0,0,1-1.23,1,1.25,1.25,0,0,1-1.17-.72C101.6,275.89,101.68,275.84,101.73,275.87Z" style="fill:#263238"></path><path d="M101.91,272.2a3.93,3.93,0,0,0,3,.94,5.09,5.09,0,0,0,1.37-.34l.25-.11.24-.11a.3.3,0,0,0,.15-.31h0a.49.49,0,0,0,0-.11h0l0-.1c-.23-.86-.7-2.13-.7-2.13.36.06,2.16.31,2-.13a59.12,59.12,0,0,0-4.84-11c-.07-.11-.25,0-.2.09,1.13,3.54,2.86,6.85,4,10.39a7,7,0,0,0-1.94,0c-.11.08,1,2.45,1,2.85v0a5.46,5.46,0,0,1-4.27-.06C101.88,272,101.82,272.13,101.91,272.2Z" style="fill:#263238"></path><path d="M105.67,272.51a4.66,4.66,0,0,1-1.38,1.93,2.08,2.08,0,0,1-1.2.43c-1,0-1.22-.77-1.26-1.52a4.92,4.92,0,0,1,.08-1.18A6,6,0,0,0,105.67,272.51Z" style="fill:#263238"></path><path d="M104.29,274.44a2.08,2.08,0,0,1-1.2.43c-1,0-1.22-.77-1.26-1.52A2.18,2.18,0,0,1,104.29,274.44Z" style="fill:#ff9abb"></path><path d="M100.44,265.16s-.07.08-.06.12c.33,1.11.52,2.42-.39,3.06a0,0,0,0,0,0,.06C101.2,267.9,100.93,266.16,100.44,265.16Z" style="fill:#263238"></path><path d="M99.15,264.26c-1.83.34-1,4,.66,3.65S100.68,264,99.15,264.26Z" style="fill:#263238"></path><path d="M106.88,263.29c0-.05.1,0,.11.08.2,1.13.62,2.39,1.72,2.55,0,0,0,.06,0,.06C107.44,266.07,106.89,264.39,106.88,263.29Z" style="fill:#263238"></path><path d="M107.63,261.9c1.78-.52,2.69,3.07,1.05,3.56S106.14,262.34,107.63,261.9Z" style="fill:#263238"></path><path d="M83.33,266.79S80,258.23,81,252.59c1.15-6.28,7.47-10.66,12.58-9.43,0,0-5.23-.69-9,8.71-1.59,4,1.75,14.23,1.75,14.23Z" style="fill:#c7c7c7"></path><path d="M92.93,268.61c1.46,4.45-.52,9.09-4.41,10.37s-8.25-1.28-9.71-5.73.52-9.08,4.42-10.37S91.47,264.17,92.93,268.61Z" style="fill:#c7c7c7"></path><path d="M90.79,269c1.31,4-.46,8.16-4,9.32s-7.41-1.16-8.72-5.15.46-8.17,4-9.32S89.48,265,90.79,269Z" style="fill:#455a64"></path><path d="M87.36,270.24A4.14,4.14,0,1,1,82,267.08,4.42,4.42,0,0,1,87.36,270.24Z" style="fill:#37474f"></path><path d="M91.16,309.82c10.63,23.5,24.94,36.77,29.83,36.28,13.17-1.31,28.94-27.67,34-34.22,2-2.64-23.64-14.55-25.48-11.48-4.32,7.23-9.79,18.23-10.17,18.43-.76.42-5.25-4.37-19.57-17.47C88.18,290.76,86.82,300.21,91.16,309.82Z" style="fill:#d3766a"></path><path d="M155.69,267.94c2.46,2.19-3.45,7.79-3.45,7.79a6.11,6.11,0,0,1,4.11.37c2.22,1.17,1.36,5.15,1.36,5.15a7.45,7.45,0,0,1,4.27,1.08c2,1.33,1.71,5.47,1.71,5.47a6.82,6.82,0,0,1,3.16,3.32c2.61,6.49-9.47,20.05-13.74,23.18l-23.9-12.19s2.84-17.87,7.55-23.56C139.37,275.4,151.93,264.6,155.69,267.94Z" style="fill:#d3766a"></path><path d="M152.13,275.72A55.15,55.15,0,0,0,142,284.53c-.06.07.05.18.12.11,3-3.21,7-5.68,10.13-8.76C152.35,275.8,152.23,275.65,152.13,275.72Z" style="fill:#263238"></path><path d="M157.38,281.11a11.88,11.88,0,0,0-2.16,2.15c-.71.82-1.41,1.64-2.1,2.48-1.37,1.68-2.7,3.38-4,5.13-.06.07.05.18.11.1,1.37-1.66,2.76-3.31,4.2-4.92l2.18-2.4a14.13,14.13,0,0,0,2-2.33A.16.16,0,0,0,157.38,281.11Z" style="fill:#263238"></path><path d="M163.63,287.87a8,8,0,0,0-1.84,2c-.61.77-1.22,1.55-1.84,2.32-1.23,1.54-2.47,3.07-3.76,4.57-.06.07.05.18.11.1,1.32-1.51,2.66-3,4-4.53.64-.74,1.27-1.5,1.91-2.25a7.56,7.56,0,0,0,1.54-2.19A.05.05,0,0,0,163.63,287.87Z" style="fill:#263238"></path><path d="M165.51,289.13a5.45,5.45,0,0,1,1.86,3.3,7.84,7.84,0,0,1-.46,3.84,33,33,0,0,1-3.44,6.87,49,49,0,0,1-4.62,6.11,41.28,41.28,0,0,1-5.59,5.23l.05-.05c-1.12,1.58-7.87,11.43-9.72,13.31,1-1.67,8.29-11.93,9.33-13.57l0,0,0,0a50.79,50.79,0,0,0,5.3-5.38,59,59,0,0,0,4.54-6,40.36,40.36,0,0,0,3.57-6.63,7.76,7.76,0,0,0,.65-3.6A5.51,5.51,0,0,0,165.51,289.13Z" style="fill:#263238"></path><path d="M99,329.13,115.68,314s-10.82-11.42-19-16.16-10,.68-7.08,9.45S99,329.13,99,329.13Z" style="fill:#AEECA0"></path><path d="M111.22,311.16a142.4,142.4,0,0,0-14.38,12.62s.07.14.1.12c4.12-3.21,11.85-10.21,14.42-12.57C111.41,311.29,111.27,311.12,111.22,311.16Z" style="fill:#263238"></path><path d="M94.86,321.68c-.35-.49-.7-1-1-1.48a11.6,11.6,0,0,1-1.06-2s0-.06,0,0c.2.31.36.65.55,1l.58.95c.2.33.4.65.62,1-.83-1.87-1.62-3.76-2.32-5.69,0,0,.06-.09.08,0,1.06,1.92,5.85,12.43,6.58,13.66.3-.18,1.6-1.33,2-1.53.08,0,.07.14,0,.22a10,10,0,0,1-2.3,2.11C98.48,329.76,95.72,323.58,94.86,321.68Z" style="fill:#263238"></path><path d="M112.42,310.19c-.31-.41-.62-.82-1-1.21a9.68,9.68,0,0,0-1.4-1.39s-.06,0,0,0c.21.24.45.46.66.7l.63.72c.22.24.44.49.64.75-1.32-1.16-1.82-1.57-3.22-2.63a0,0,0,1,0,0,.06c1.3,1.35,6,5.82,6.84,6.68-.22.19-.76.86-1,1.11-.06.05.06.14.14.11a5.77,5.77,0,0,0,1.65-1.37C116.36,313.67,113.76,311.37,112.42,310.19Z" style="fill:#263238"></path></g><g id="freepik--musical-notes--inject-2"><path d="M129.51,179.93a3.51,3.51,0,1,1-2.79-4.11A3.51,3.51,0,0,1,129.51,179.93Z" style="fill:#455a64"></path><rect x="128.51" y="162.14" width="2.68" height="17.65" transform="translate(34.23 -21.25) rotate(10.77)" style="fill:#455a64"></rect><path d="M141.63,177a3.51,3.51,0,1,1-2.79-4.1A3.5,3.5,0,0,1,141.63,177Z" style="fill:#455a64"></path><rect x="140.63" y="159.25" width="2.68" height="17.65" transform="translate(33.89 -23.56) rotate(10.77)" style="fill:#455a64"></rect><polygon points="144.93 159.69 129.74 164.37 130.18 162.05 145.37 157.37 144.93 159.69" style="fill:#455a64"></polygon><polygon points="144.1 164.06 128.91 168.73 129.35 166.42 144.54 161.74 144.1 164.06" style="fill:#455a64"></polygon><path d="M129.14,236.13a2,2,0,0,1-2.29,1.55,2,2,0,1,1,2.29-1.55Z" style="fill:#455a64"></path><rect x="128.58" y="226.23" width="1.49" height="9.83" transform="translate(45.44 -20.09) rotate(10.76)" style="fill:#455a64"></rect><path d="M135.88,234.51a2,2,0,1,1-1.55-2.28A2,2,0,0,1,135.88,234.51Z" style="fill:#455a64"></path><rect x="135.32" y="224.61" width="1.49" height="9.83" transform="translate(45.27 -21.38) rotate(10.77)" style="fill:#455a64"></rect><polygon points="137.72 224.86 129.26 227.46 129.51 226.17 137.97 223.57 137.72 224.86" style="fill:#455a64"></polygon><path d="M112.81,222a3.51,3.51,0,1,1-2.8-4.11A3.52,3.52,0,0,1,112.81,222Z" style="fill:#455a64"></path><rect x="111.8" y="204.21" width="2.68" height="17.65" transform="translate(41.78 -17.39) rotate(10.77)" style="fill:#455a64"></rect><rect x="122.77" y="201.55" width="2.68" height="5.1" transform="translate(40.33 -19.6) rotate(10.77)" style="fill:#455a64"></rect><polygon points="125.78 202.52 113.03 206.43 113.48 204.11 126.22 200.2 125.78 202.52" style="fill:#455a64"></polygon><polygon points="124.95 206.88 112.2 210.8 112.64 208.48 125.39 204.57 124.95 206.88" style="fill:#455a64"></polygon></g></svg>