<svg width="40" height="40" viewBox="0 0 40 40" fill="none" xmlns="http://www.w3.org/2000/svg">
<path d="M7.10723 7.27664C7.10723 7.27664 7.20603 7.28762 7.24994 7.28762C7.67809 7.28762 7.98545 7.01317 8.05132 6.5521C8.12817 6.06907 8.20501 5.57507 8.27088 5.10302C8.31479 4.8176 8.35871 4.54315 8.40262 4.25773C8.47947 3.78569 8.55631 3.31363 8.63315 2.83061L8.72098 2.27073L16.153 3.43439L16.1201 3.61003C16.0871 3.79666 16.0652 3.95035 16.0432 4.11502C16.0103 4.31262 15.9883 4.49924 15.9554 4.69684C15.8785 5.15791 15.8017 5.64094 15.7688 6.12396C15.7468 6.38743 15.8127 6.60699 15.9554 6.77166C16.0871 6.92535 16.2957 7.0022 16.5262 7.0022C16.625 7.0022 16.7348 6.99122 16.8337 6.95829C16.8555 6.95829 16.8665 6.95829 16.8885 6.94731C16.9543 6.92535 17.0312 6.91437 17.0971 6.87046C17.3057 6.76069 17.5032 6.7058 17.6899 6.7058C17.9643 6.7058 18.2169 6.82655 18.4583 7.07904C18.6889 7.32055 18.9523 7.44131 19.2378 7.44131C19.4244 7.44131 19.611 7.38642 19.8087 7.28762C20.0062 7.17784 20.1929 7.12295 20.3685 7.12295C20.632 7.12295 20.8734 7.24371 21.115 7.48522C21.3564 7.72673 21.62 7.84749 21.9163 7.84749C22.103 7.84749 22.2897 7.7926 22.4762 7.6938C22.6739 7.595 22.8494 7.54011 23.0251 7.54011C23.2995 7.54011 23.5521 7.66086 23.8375 7.91335C24.0461 8.09997 24.3644 8.22074 24.6279 8.22074C24.6499 8.22074 24.6609 8.22074 24.6828 8.22074C25.2647 8.17683 25.3524 7.62793 25.4073 7.26566C25.4951 6.7058 25.583 6.14592 25.6708 5.5641L25.7695 4.93835L33.1907 6.09103C33.1907 6.09103 33.1907 6.11299 33.1907 6.12396C33.1907 6.20081 33.1907 6.2557 33.1907 6.31059C33.1028 6.9034 33.004 7.48522 32.9052 8.07803C32.7844 8.85745 32.6528 9.64786 32.532 10.4273C32.0709 13.3693 31.6208 16.3114 31.1598 19.2534L30.3364 24.5558C30.2815 24.8741 30.3364 25.1486 30.4791 25.3352C30.5889 25.4889 30.7645 25.5877 30.9841 25.6207C31.028 25.6207 31.0829 25.6207 31.1268 25.6207C31.5659 25.6207 31.8623 25.3132 31.9391 24.7863C32.1258 23.6008 32.3124 22.4261 32.488 21.2404L34.9032 5.65192C34.991 5.04813 34.7604 4.70782 34.1787 4.59804C33.7505 4.51022 33.3114 4.44435 32.8832 4.37849C32.7515 4.35653 32.6198 4.33457 32.4771 4.31262C30.7974 4.04915 29.1069 3.78567 27.4272 3.53319L21.5541 2.62203C19.8525 2.35856 18.151 2.09509 16.4494 1.83162L16.1859 1.78771C13.5622 1.38153 10.8397 0.964368 8.17209 0.558188C8.10621 0.558188 8.02938 0.547211 7.97449 0.547211C7.66711 0.547211 7.28288 0.667966 7.19505 1.27175C6.93159 2.87452 6.67909 4.53217 6.40464 6.32156C6.37171 6.56307 6.41563 6.8046 6.54737 6.96926C6.66812 7.13393 6.85474 7.23273 7.06332 7.26566L7.10723 7.27664ZM21.5321 5.7617C21.2468 5.47627 20.9393 5.33356 20.61 5.33356C20.3904 5.33356 20.1709 5.39943 19.9403 5.53116C19.7757 5.61899 19.633 5.67387 19.4902 5.67387C19.2817 5.67387 19.0731 5.57507 18.8535 5.3665C18.634 5.16889 18.3485 4.93835 17.9643 4.93835C17.8327 4.93835 17.6899 4.97129 17.5472 5.02617L17.7558 3.69785L24.1888 4.68586L23.9802 6.00321C23.7717 5.84952 23.5521 5.7617 23.3105 5.7617C23.0141 5.7617 22.7178 5.88245 22.4762 5.99223C22.3554 6.04712 22.2457 6.06907 22.1469 6.06907C21.9822 6.06907 21.8285 6.00321 21.6639 5.84952C21.6419 5.82756 21.609 5.80561 21.5761 5.78365C21.5541 5.77267 21.5321 5.7617 21.5212 5.73974L21.5321 5.7617Z" fill="#00BE35"/>
<path d="M22.092 31.0875C22.608 31.0875 22.8935 30.879 22.9592 30.4618C23.0032 30.2202 22.9592 30.0227 22.8495 29.869C22.6848 29.6384 22.3665 29.4958 21.8286 29.4189C20.2478 29.1773 18.634 28.9249 17.0861 28.6833C16.3616 28.5735 15.648 28.4529 14.9235 28.3431L11.213 27.7612C9.77487 27.5417 8.34774 27.3111 6.90964 27.0915C6.42662 27.0148 5.94359 26.9379 5.44959 26.861L4.87873 26.7732C4.92264 26.4988 4.96656 26.2133 5.01047 25.9389C5.12024 25.2034 5.23002 24.5008 5.35078 23.7982C5.48251 22.9749 5.03242 22.7553 4.75798 22.6894C4.69211 22.6784 4.62624 22.6675 4.56038 22.6675C4.31886 22.6675 3.9017 22.7773 3.76997 23.5128C3.57237 24.6764 3.38574 25.8621 3.19912 27.1574C3.08934 27.904 3.3089 28.2113 4.04441 28.3211C5.96553 28.6175 7.87569 28.9139 9.79681 29.2103C10.9056 29.386 12.0143 29.5507 13.1231 29.7262L14.1001 29.88C16.5591 30.2642 19.106 30.6484 21.598 31.0437C21.7847 31.0765 21.9383 31.0875 22.081 31.0875H22.092Z" fill="#00BE35"/>
<path d="M3.78601 13.0202C2.9956 15.0164 3.06026 17.0877 3.98127 19.3812C4.09707 19.6698 4.24122 19.85 4.42867 19.9414C4.66555 20.0569 4.95474 20.0148 5.31622 19.8247C5.56529 19.6896 5.80954 19.5645 6.05861 19.4294C6.34187 19.2745 6.62503 19.1195 6.90829 18.9645C7.12317 18.8494 7.29977 18.8379 7.52676 18.9486C8.76011 19.5501 10.0548 19.9007 11.3473 20.0303C11.883 20.0839 12.3556 20.2168 12.7996 20.4333C13.1351 20.5969 13.4465 20.8099 13.7485 21.0671C13.9171 21.2226 14.105 21.3631 14.2732 21.4939L14.4166 21.6005C14.5699 21.712 14.7182 21.8087 14.8859 21.8905C15.4977 22.1889 16.1654 22.1971 16.7322 21.9116C17.3283 21.616 17.7398 21.0228 17.8845 20.2751C18.1224 19.011 17.6894 17.9204 16.6005 17.0229C16.2689 16.7512 15.9033 16.524 15.5524 16.2918C15.34 16.1516 15.1127 16.0163 14.8952 15.8613C14.7963 15.7886 14.7118 15.6863 14.6175 15.5793C14.6025 15.5599 14.5778 15.5356 14.5628 15.516C14.5772 15.4865 14.6066 15.4763 14.6309 15.4516C14.7282 15.3524 14.8353 15.258 14.933 15.208C15.4754 14.9473 16.0101 14.9028 16.5224 15.0794C17.1777 15.3135 17.8331 15.5476 18.4736 15.7868C19.533 16.1691 20.6219 16.5659 21.7056 16.9234C22.5823 17.2044 23.4383 17.3776 24.2389 17.4139C25.241 17.463 26.0791 16.8213 26.3683 15.7777C26.6008 14.9506 26.1747 14.071 25.3206 13.5934C24.9257 13.3763 24.4964 13.1546 23.9636 12.8948C23.6183 12.7264 23.273 12.5579 22.9276 12.3895C22.6118 12.2355 22.306 12.0863 21.9903 11.9323L22.0095 11.8929L20.6832 11.3316C19.7415 10.9333 18.7999 10.5351 17.863 10.127C16.6501 9.60873 15.5239 9.41362 14.4202 9.52274C13.0076 9.66429 11.5328 9.95865 9.65281 10.5075C8.98704 10.6957 8.25684 10.8404 7.3988 10.947C7.13888 10.9791 6.8044 10.9136 6.49851 10.7644L6.46885 10.75C6.0545 10.5479 5.71105 10.5758 5.37484 10.8393C4.66362 11.3962 4.13063 12.1134 3.7903 12.9612L3.78601 13.0202ZM12.5645 11.5245L13.1326 11.3863C14.7147 10.9977 16.2531 11.1739 17.8217 11.9146C19.0943 12.5108 20.3962 13.0969 21.6489 13.6591C22.3492 13.9762 23.0444 14.2787 23.7447 14.5958C23.8236 14.6342 23.9026 14.6728 23.9815 14.7112C24.2085 14.822 24.3665 14.9235 24.5001 15.0252C24.6289 15.1369 24.7585 15.3468 24.7692 15.4253C24.6484 15.6227 24.4051 15.8461 24.2626 15.8377C23.7472 15.8428 23.2358 15.7644 22.7875 15.6068C21.6494 15.2104 20.5063 14.7995 19.3976 14.3931C18.7325 14.1542 18.082 13.9102 17.4169 13.6714C16.1604 13.2173 14.9781 13.3124 13.9289 13.961C13.2701 14.3603 12.8879 14.9434 12.8939 15.557C12.8903 16.1905 13.2793 16.7954 13.966 17.2157C14.7069 17.6749 15.2902 18.0816 15.8149 18.5084C16.295 18.9013 16.4721 19.4397 16.3211 20.05C16.2643 20.2666 16.1675 20.4148 16.0357 20.4849C15.894 20.5501 15.7363 20.4976 15.6278 20.4447C15.5686 20.4158 15.5093 20.3869 15.4598 20.3383C15.1481 20.1008 14.8365 19.8633 14.5248 19.6259C14.3912 19.524 14.2577 19.4223 14.1241 19.3204C13.8916 19.1459 13.6594 18.9961 13.4127 18.8758C12.9687 18.6592 12.506 18.5312 12.0097 18.4968C10.7716 18.406 9.52599 18.0549 8.08619 17.4259C7.41544 17.1233 6.83135 17.1437 6.26011 17.4636C6.00621 17.6085 5.75218 17.7289 5.46868 17.8592C5.37575 17.8995 5.29271 17.9445 5.19983 17.9846C4.45442 15.0806 5.16668 13.6203 5.87413 12.6706C5.94675 12.5717 6.11278 12.4817 6.15715 12.4911C7.50569 12.8314 8.7592 12.49 9.9834 12.1588C10.8403 11.9294 11.7269 11.7144 12.5839 11.5096L12.5645 11.5245Z" fill="#00BE35"/>
<path d="M32.5471 20.6732C32.236 20.2589 31.8266 19.858 31.3698 19.5181C28.6399 17.4977 25.4409 16.4825 22.4078 15.6887C21.9886 15.5749 21.6311 15.5281 21.2954 15.5398C20.5252 15.5667 19.9449 15.9329 19.574 16.6379C19.4834 16.5917 19.3932 16.5553 19.3026 16.509C19.0312 16.3801 18.7799 16.2603 18.519 16.1508C18.1276 15.9865 17.7987 15.909 17.4827 15.9201C17.3544 15.9245 17.2264 15.9389 17.099 15.973C16.3252 16.178 15.829 16.6896 15.6107 17.5178C15.402 17.4855 15.2038 17.4726 15.0261 17.4788C14.2856 17.5047 13.7246 17.8604 13.3629 18.5453C12.9646 19.3106 13.0698 20.0583 13.6881 20.7782C13.6884 20.788 13.6788 20.7982 13.6694 20.8084C13.2839 21.3755 13.1462 21.9636 13.2741 22.5128C13.4021 23.0619 13.7938 23.5227 14.3888 23.8579C16.0321 24.7694 17.6457 25.6818 19.0073 26.4549C19.7031 26.8457 20.4094 27.256 21.0954 27.6473C21.3577 27.7964 21.61 27.9457 21.8722 28.0947C21.8525 28.0954 21.8228 28.0964 21.8031 28.0971C21.6359 28.1228 21.4589 28.1487 21.2818 28.1746C20.4072 28.3239 19.4178 28.5857 18.6957 29.4217C18.0875 30.125 17.9954 31.1663 18.4793 31.9996C18.8162 32.5909 19.3795 32.8678 20.2089 32.8388C20.3077 32.8354 20.4163 32.8316 20.5345 32.8176C21.5487 32.7031 22.3669 32.6349 23.1075 32.6091C23.3149 32.6018 23.5221 32.5946 23.7196 32.5877C23.848 32.5832 23.9665 32.5791 24.0949 32.5746C25.3983 32.5291 26.516 32.2627 27.5066 31.7536C27.9048 31.5518 28.3232 31.3593 28.7222 31.1773C28.9363 31.0808 29.1423 31.0341 29.3398 31.0272C29.6558 31.0161 29.9558 31.1144 30.2599 31.3312C30.6554 31.6139 31.0702 31.8862 31.4748 32.1488C31.657 32.271 31.8491 32.3928 32.0313 32.515C32.2946 32.6936 32.4649 32.7569 32.6327 32.751C32.85 32.7434 33.0331 32.6085 33.2438 32.4133C34.5742 31.1607 35.5708 29.6924 36.1959 28.0592C36.7221 26.7062 37.0672 25.5473 37.0724 24.2818C37.0738 23.471 36.9491 23.2975 36.19 23.0768C34.6324 22.6368 33.4479 21.8379 32.5658 20.6428L32.5471 20.6732ZM19.6789 30.6824C19.7826 30.2537 20.1287 29.9747 20.7358 29.8052C21.1371 29.6923 21.5699 29.6278 21.9828 29.5639C22.0812 29.5506 22.1796 29.5372 22.2777 29.5141C22.9855 29.4003 23.3691 29.0607 23.4958 28.4433C23.6222 27.8161 23.366 27.2715 22.7808 26.936C21.0252 25.9197 19.2296 24.895 17.4849 23.908L17.3738 23.8426C16.94 23.5909 16.4867 23.3497 16.0531 23.1077C15.7708 22.9495 15.4884 22.7914 15.2061 22.6331L15.1758 22.6145C15.0648 22.5491 14.9541 22.4936 14.8625 22.4178C14.6387 22.2378 14.6005 21.992 14.7603 21.7589C14.8546 21.6272 14.9428 21.6043 15.002 21.6022C15.0811 21.5994 15.1808 21.6257 15.3116 21.6903C16.7688 22.3709 18.2261 23.0517 19.6833 23.7323L19.9449 23.8616C20.2463 23.9993 20.5579 24.1467 20.8695 24.294C21.0303 24.3674 21.1897 24.4014 21.3378 24.3962C21.6043 24.3869 21.8072 24.2513 21.927 24C22.0192 23.8089 22.0327 23.6305 21.9771 23.4545C21.9109 23.2591 21.727 23.0875 21.4754 22.9579C20.2592 22.3875 19.0332 21.8173 17.8167 21.237C16.9926 20.8506 16.1783 20.4638 15.3545 20.0872L15.3041 20.0593C15.1532 19.9855 14.9924 19.912 14.8511 19.828C14.5878 19.6494 14.5002 19.4053 14.6302 19.1635C14.7139 19.0123 14.8687 18.9178 15.0366 18.912C15.1255 18.9089 15.215 18.9255 15.2955 18.9623C15.9786 19.2745 16.6719 19.5963 17.3452 19.909C17.6065 20.0283 17.868 20.1576 18.1292 20.2771L21.9581 22.0612C22.0385 22.0979 22.1188 22.1347 22.1993 22.1715C22.3498 22.2354 22.489 22.2602 22.6273 22.2554C22.8939 22.2461 23.1062 22.1002 23.226 21.8488C23.42 21.4565 23.2577 21.0568 22.8051 20.8354C22.6542 20.7616 22.5037 20.6976 22.363 20.6334C22.2728 20.5969 22.1921 20.5503 22.1018 20.514L20.303 19.6771C19.3685 19.2452 18.4439 18.8128 17.5094 18.3807C16.9866 18.1321 16.9498 17.9258 17.0501 17.685C17.1321 17.4845 17.2866 17.3802 17.5038 17.3726C17.6321 17.3681 17.7816 17.4024 17.9424 17.4759C19.3694 18.1379 20.8164 18.809 22.2138 19.472L23.8617 20.235C23.8617 20.235 23.922 20.2626 23.9523 20.2812C24.0326 20.3181 24.1031 20.3551 24.193 20.3816C24.2931 20.4176 24.4025 20.4336 24.5012 20.4302C24.7875 20.4202 25.0193 20.2638 25.1289 20.0029C25.2939 19.6314 25.1517 19.2409 24.7696 19.0566C24.1862 18.7705 23.5933 18.4946 23.0204 18.2279C22.7892 18.1173 22.5481 18.0071 22.3168 17.8966L20.9097 17.2339C20.9631 17.0639 21.0788 16.9808 21.2664 16.9743C21.3059 16.9729 21.3355 16.9718 21.3848 16.9701L21.5336 16.9847C21.8905 17.0118 22.2474 17.0389 22.5774 17.146C24.8365 17.858 27.0268 18.5823 29.0927 19.7063C30.0906 20.2548 30.9145 20.918 31.5959 21.7445C32.0398 22.2825 32.5337 22.8387 33.1121 23.2634C33.5583 23.5839 34.08 23.8029 34.5911 24.0026C34.6913 24.0386 34.7917 24.0846 34.8918 24.1206L34.9521 24.1482C35.2733 24.2853 35.4538 24.358 35.5069 24.4649C35.57 24.5715 35.5377 24.7803 35.4715 25.1483C35.0839 27.3566 34.0858 29.3489 32.4846 31.0558C32.3429 30.9618 32.2015 30.8778 32.0697 30.7835C31.7056 30.5491 31.3518 30.3242 31.0071 30.0792C30.4601 29.7029 29.8703 29.5158 29.2581 29.5372C28.9026 29.5496 28.5298 29.6319 28.1496 29.7835C27.74 29.9461 27.4091 30.0961 27.1184 30.2644C26.2171 30.7803 25.228 31.0521 24.0826 31.0921C24.0037 31.0949 23.9246 31.0976 23.8358 31.1007C23.6284 31.108 23.421 31.1152 23.194 31.1232C22.6213 31.1432 22.0394 31.1832 21.4674 31.223C21.1518 31.2439 20.8362 31.2648 20.5106 31.2861C20.4613 31.2878 20.4122 31.2994 20.3636 31.3209C20.3241 31.3222 20.2951 31.343 20.2556 31.3444C20.2062 31.3461 20.147 31.3482 20.0878 31.3503C19.9891 31.3537 19.8113 31.3599 19.7807 31.3313C19.6655 31.1475 19.5765 30.8639 19.6288 30.6644L19.6789 30.6824Z" fill="#00BE35"/>
</svg>
