<svg width="38" height="36" viewBox="0 0 38 36" fill="none" xmlns="http://www.w3.org/2000/svg">
<path d="M30.9693 15.4846C31.3706 15.2527 31.772 15.0208 32.1734 14.7889C33.2438 14.1734 34.3409 13.5312 35.4291 12.8979C35.5808 12.8087 35.6967 12.6838 35.8216 12.5679C35.8751 12.5144 35.9286 12.4609 35.9821 12.4073L36.0089 12.3806V11.8722L35.9732 11.8454C35.9019 11.7919 35.8394 11.7384 35.7681 11.6848C35.6164 11.5689 35.4648 11.4529 35.3042 11.3548C34.1179 10.6591 32.9138 9.96333 31.7453 9.28543L28.8285 7.5996C27.3924 6.77007 25.9475 5.93162 24.5114 5.10208C24.3419 5.00396 24.1635 4.90585 23.9673 4.90585C23.8692 4.90585 23.771 4.93261 23.6729 4.98612L23.5124 5.07532C23.1467 5.28048 20.8632 4.63826 20.4975 4.87017C20.1764 5.07533 6.94987 10.3315 9.58867 5.47671C6.40427 10.4896 22.4955 6.98414 22.7453 6.98414C22.8612 6.98414 22.9861 6.95738 23.1021 6.89495C23.334 6.77899 23.5213 6.67195 23.6908 6.556C23.7889 6.48464 23.8781 6.45788 23.9673 6.45788C24.0565 6.45788 24.1367 6.48464 24.2527 6.556C26.6967 7.98315 29.1853 9.41923 31.5936 10.8196L33.7076 12.0416C33.779 12.0862 33.8503 12.1219 33.9217 12.1754L33.2259 12.5768C31.9861 13.2993 30.6927 14.0396 29.4351 14.7621C29.4351 14.7621 29.4172 14.7621 29.3815 14.7621C29.3191 14.7621 29.221 14.7354 29.1586 14.6997C28.3201 14.227 27.4816 13.7364 26.661 13.2547L22.2993 10.7215C22.2993 10.7215 22.3528 10.6323 22.3885 10.5966C22.4866 10.445 22.5847 10.3023 22.6828 10.1596C22.8969 9.85629 22.9326 9.57978 22.7899 9.31219C22.6204 8.99108 22.326 8.94648 22.0852 8.94648H22.0495C21.8265 8.94648 21.6035 8.94648 21.3716 8.94648C21.2111 8.94648 21.0505 8.94648 20.89 8.94648C20.7562 8.94648 20.6224 8.94648 20.4975 8.94648C20.4886 8.83945 20.4797 8.73241 20.4707 8.62537C20.4529 8.33994 20.4261 8.08127 20.3905 7.81368C20.105 5.75322 19.2131 3.98712 17.7324 2.55996C15.9752 0.865214 13.8077 9.53674e-07 11.2923 9.53674e-07H11.1942C10.5788 9.53674e-07 9.90977 9.53674e-07 9.10697 9.53674e-07C8.55396 9.53674e-07 7.99202 9.53674e-07 7.439 9.53674e-07C6.88598 9.53674e-07 6.32403 9.53674e-07 5.77101 9.53674e-07H5.73533C4.95039 9.53674e-07 4.78092 0.36571 4.772 0.6779C14.6997 14.3251 5.1353 1.94003 4.93255 1.12389C5.09311 1.28444 8.82152 6.56492 9.20507 6.56492C9.45482 6.56492 6.24375 1.37364 6.4935 1.37364C12.6035 12.4073 8.71451 4.77205 9.10697 4.77205C9.49944 4.77205 8.87374 6.12122 9.2662 6.12122C10.2206 6.12122 10.9266 1.38256 12.0684 1.445C14.4767 1.58771 16.4301 2.74727 17.8662 4.89693C18.7314 6.19921 19.1328 7.69772 19.106 9.49059C19.106 9.78494 19.1595 9.98117 19.2933 10.1239C19.4271 10.2666 19.6323 10.329 19.9356 10.329C20.0694 10.329 20.1942 10.329 20.328 10.329H20.8543L18.0089 14.3964L15.1635 10.329C15.2438 10.329 15.3151 10.329 15.3865 10.329C15.5025 10.329 15.6184 10.329 15.7344 10.329C15.886 10.329 16.0287 10.329 16.1714 10.329C16.6442 10.3201 16.9029 10.0525 16.9118 9.57978C16.9118 9.14272 16.9296 8.67889 16.9118 8.21506C16.8493 6.556 15.4668 5.01288 13.888 4.85233C13.2012 4.78097 12.5143 4.77205 11.8721 4.77205C11.6848 4.77205 11.4975 4.77205 11.3191 4.77205C11.1318 4.77205 10.9534 4.77205 10.7661 4.77205C10.5966 4.77205 10.4182 4.77205 10.2398 4.77205C10.1595 4.77205 10.0168 4.78097 9.94547 4.87017C9.91867 4.90585 9.89197 4.94153 9.85627 4.97721C9.72247 5.13776 9.64217 7.27621 9.58867 5.47671C9.20507 6.33697 9.49057 6.91278 9.58867 6.98414C9.67787 7.0555 10.2131 6.15461 10.329 6.15461C10.3647 6.15461 10.4004 6.15461 10.4271 6.15461C10.4539 6.15461 9.80277 6.95738 10.5253 6.15461L9.87144 7.3844C10.3442 7.3844 11.5867 6.15461 12.0684 6.15461C12.4073 6.15461 12.7463 6.15461 13.0852 6.15461H13.1209C13.8701 6.15461 14.5302 6.44004 14.9673 6.94846C15.4133 7.47473 15.6095 8.19722 15.5025 8.94648C15.3776 8.94648 15.2438 8.94648 15.1189 8.94648C14.9584 8.94648 14.8067 8.94648 14.6462 8.94648C14.4232 8.94648 14.2091 8.94648 13.9861 8.94648H13.9593C13.7096 8.94648 13.3974 8.99108 13.2279 9.33003C13.0495 9.68682 13.2279 9.98117 13.3617 10.1685C13.4598 10.3023 13.558 10.4539 13.6472 10.5966C13.6739 10.6323 13.7007 10.6769 13.7274 10.7126C13.7096 10.7215 13.7007 10.7393 13.6828 10.7393L12.0951 11.6581C10.3736 12.6571 8.59856 13.6829 6.85922 14.6997C6.78786 14.7354 6.73434 14.7532 6.68082 14.7532C6.6273 14.7532 6.56487 14.7354 6.47567 14.6819C5.51234 14.1199 4.53117 13.5491 3.57676 12.996L2.45287 12.3449C2.34583 12.2825 2.24772 12.22 2.13176 12.1576L2.09608 12.1397H2.105C2.1942 12.0773 2.27448 12.0327 2.35475 11.9881L4.76308 10.5966C6.2616 9.73142 7.75119 8.8662 9.24967 8.00099L9.27647 7.98315C9.40137 7.91179 9.52617 7.84044 9.64217 7.74232C9.89187 7.52825 9.96327 7.20714 9.80277 6.95738C9.67787 6.76115 9.41027 6.62735 9.20507 6.56492C9.17837 6.56492 9.15157 6.556 9.12487 6.556C8.98211 6.556 8.82155 6.63627 8.68776 6.71655C5.84236 8.35778 2.97914 10.0079 0.552965 11.4172C0.0980652 11.6848 -5.68628e-05 11.9524 -5.68628e-05 12.1397C-5.68628e-05 12.3181 0.0980652 12.5946 0.552965 12.8622C1.39143 13.3528 2.2388 13.8434 3.07726 14.3251C3.73732 14.7086 4.39737 15.0833 5.04851 15.4668C5.11095 15.5025 5.1823 15.5471 5.25365 15.6006H5.24474C5.16446 15.6541 5.09311 15.6987 5.02175 15.7433L3.31809 16.7334C2.39935 17.2686 1.4717 17.8038 0.552965 18.3389C0.0980652 18.6065 -5.68628e-05 18.8741 -5.68628e-05 19.0614C-5.68628e-05 19.2398 0.0980652 19.5164 0.552965 19.7839L1.36467 20.2567C2.79182 21.0862 4.26357 21.9425 5.72641 22.7721C5.91372 22.8791 5.97617 22.9861 5.97617 23.2091C5.97617 23.9851 5.97617 24.779 5.97617 25.5461C5.97617 26.5005 5.97616 27.4906 5.96724 28.4539C5.96724 28.9356 6.13672 29.2478 6.56486 29.4886C8.60748 30.6571 10.6769 31.8612 12.6749 33.0208L13.4242 33.4579C14.4232 34.0377 15.4222 34.6174 16.4212 35.2061C16.8672 35.4648 17.7859 36 17.7859 36H18.2587C18.2587 36 19.1774 35.4648 19.6323 35.1972C20.6224 34.6174 21.6214 34.0377 22.6204 33.4579L23.5659 32.9049C25.5015 31.781 27.4995 30.6214 29.4797 29.4886C29.9078 29.2478 30.0862 28.9267 30.0862 28.4272C30.0773 27.446 30.0773 26.447 30.0773 25.4836C30.0773 24.7255 30.0773 23.9495 30.0773 23.1824C30.0773 22.9772 30.1308 22.8791 30.3181 22.7721C32.1377 21.7284 33.8146 20.7562 35.4202 19.8196C35.5718 19.7304 35.7056 19.6056 35.8305 19.4807C35.884 19.4272 35.9465 19.3736 36 19.3201L36.0357 19.2934V18.8652L36.0089 18.8385C35.9554 18.7939 35.9108 18.7403 35.8662 18.6868C35.7591 18.5709 35.6432 18.446 35.5005 18.3568C34.3944 17.7056 33.2705 17.0545 32.1823 16.4301C31.7899 16.2071 31.3974 15.9752 31.0139 15.7522C30.9425 15.7076 30.8711 15.663 30.7909 15.6184C30.8711 15.5738 30.9336 15.5292 31.0049 15.4846H30.9693ZM6.81461 16.5104C9.74917 18.2052 12.7373 19.9356 15.6184 21.6036L16.6085 22.1744L16.3766 22.3082C16.1358 22.4509 15.9128 22.5847 15.6809 22.7185L15.0119 23.1021C14.1021 23.6283 13.1655 24.1724 12.2289 24.6987C12.1754 24.7344 12.0773 24.7522 12.0059 24.7522C11.9613 24.7522 11.9257 24.7522 11.8989 24.7344C8.97319 23.0486 6.00291 21.3271 3.13076 19.668L2.09608 19.0704C2.09608 19.0704 2.15852 19.0258 2.18528 19.0079L2.7383 18.6868C3.96922 17.9732 5.24475 17.2329 6.50243 16.5193C6.53811 16.5015 6.60053 16.4836 6.66297 16.4836C6.71649 16.4836 6.77001 16.4926 6.80569 16.5104H6.81461ZM7.36764 28.0347C7.37656 27.0357 7.36764 26.0188 7.36764 25.0287C7.36764 24.6809 7.36764 24.333 7.36764 23.9762V23.7354C7.36764 23.7354 7.38548 23.7443 7.40332 23.7532C7.50144 23.8067 7.59063 23.8513 7.67091 23.9049C8.00094 24.0922 8.33097 24.2884 8.661 24.4757C9.58867 25.0109 10.5431 25.555 11.4707 26.1169C11.6759 26.2329 11.8632 26.2953 12.0416 26.2953C12.22 26.2953 12.4073 26.2418 12.6035 26.1259C13.7185 25.4658 14.8692 24.8057 15.9752 24.1635C16.3409 23.9495 16.7066 23.7443 17.0723 23.5302C17.1437 23.4945 17.215 23.45 17.2953 23.4143V34.0823C17.2953 34.0823 15.7968 33.217 15.3419 32.9584L13.6204 31.9594C11.6581 30.8266 9.63327 29.6492 7.64415 28.5074C7.439 28.3915 7.37656 28.2755 7.37656 28.0436L7.36764 28.0347ZM8.24177 15.7076C8.18825 15.6809 8.13474 15.6452 8.0723 15.6006L14.5302 11.8632C14.5302 11.8632 14.548 11.89 14.557 11.8989C14.6105 11.9613 14.6551 12.0238 14.6997 12.0862C15.2705 12.8979 15.8414 13.7185 16.4123 14.5302L17.2686 15.7522C17.5362 16.1358 17.777 16.3142 18.0178 16.3142C18.2587 16.3142 18.4906 16.1447 18.7582 15.7701C18.7582 15.7701 20.7919 12.8712 21.327 12.1041C21.3716 12.0416 21.4162 11.9792 21.4698 11.9167L21.5054 11.8722L27.9633 15.6095C27.8919 15.6541 27.8384 15.6898 27.7849 15.7255L25.5371 17.0278C23.1556 18.4103 20.6937 19.8285 18.2765 21.2379C18.1784 21.3003 18.0981 21.3271 18.0267 21.3271C17.9554 21.3271 17.884 21.3003 17.8037 21.2557C15.3776 19.8464 12.9157 18.4192 10.5253 17.0367L8.25961 15.7255L8.24177 15.7076ZM18.7314 34.0733V23.4054C18.8206 23.4499 18.9009 23.4945 18.9722 23.5391C19.3469 23.7532 19.7215 23.9762 20.0961 24.1903C21.1665 24.8057 22.2636 25.439 23.3429 26.0813C23.5748 26.224 23.78 26.2864 23.9762 26.2864C24.1724 26.2864 24.3687 26.224 24.5917 26.0902C25.5104 25.5372 26.447 25.002 27.3657 24.4757C27.7225 24.2706 28.0703 24.0743 28.4271 23.8692C28.4896 23.8335 28.552 23.7978 28.6323 23.7532H28.6412V24.6363C28.6412 25.4926 28.6412 26.3221 28.6412 27.1516C28.6412 27.2676 28.6412 27.4014 28.659 27.5173C28.6769 27.8206 28.7036 28.1239 28.5877 28.338C28.4807 28.5342 28.2131 28.6591 27.9455 28.7839C27.8295 28.8375 27.7136 28.891 27.6065 28.9534C24.7165 30.6303 21.8265 32.2983 18.9366 33.9663C18.8652 34.002 18.8028 34.0377 18.7225 34.0823L18.7314 34.0733ZM23.9405 24.7612C23.9405 24.7612 23.8602 24.7611 23.8424 24.7433C22.5847 24.0297 21.3181 23.2894 20.0872 22.5758C20.0872 22.5758 19.4004 22.1744 19.3915 22.1744L25.0555 18.892C26.3845 18.1249 27.7671 17.3221 29.114 16.5372C29.2031 16.4836 29.2656 16.4658 29.328 16.4658C29.3905 16.4658 29.4618 16.4926 29.551 16.5372C30.5679 17.1348 31.6026 17.7324 32.6105 18.3211C32.9851 18.5441 33.3687 18.7582 33.7433 18.9812C33.7968 19.0079 33.8414 19.0436 33.9038 19.0793L28.9712 21.9336C27.3924 22.8434 25.7691 23.7889 24.1635 24.7076C24.1011 24.7433 24.003 24.7701 23.9227 24.7701L23.9405 24.7612Z" fill="#00BE35"/>
</svg>
