<svg width="32" height="40" viewBox="0 0 32 40" fill="none" xmlns="http://www.w3.org/2000/svg">
<g clip-path="url(#clip0_105_28)">
<path d="M7.91618 29.9C8.33682 29.9 8.67781 29.6016 8.67781 29.2336C8.67781 28.8655 8.33682 28.5671 7.91618 28.5671C7.49554 28.5671 7.15454 28.8655 7.15454 29.2336C7.15454 29.6016 7.49554 29.9 7.91618 29.9Z" fill="#00BE35"/>
<path d="M2.06705 22.7664C0.743306 23.9286 0 25.5024 0 27.1432C0 28.784 0.743306 30.3579 2.06705 31.52C2.13562 31.58 2.20991 31.6321 2.28011 31.6893V37.3321C2.2799 37.6825 2.3586 38.0294 2.51169 38.3531C2.66479 38.6769 2.88929 38.971 3.17238 39.2188C3.45545 39.4665 3.79157 39.6631 4.16149 39.7971C4.53141 39.9311 4.9279 40.0001 5.32829 40H26.6613C27.4696 40 28.2447 39.7191 28.8161 39.219C29.3876 38.719 29.7087 38.0408 29.7087 37.3336V31.6857C29.778 31.6293 29.8515 31.5786 29.9193 31.5193C31.2434 30.358 31.9871 28.7847 31.9871 27.1443C31.9871 25.5039 31.2434 23.9305 29.9193 22.7693L29.7087 22.585V16.085L29.9193 15.9007C30.5772 15.3265 31.0992 14.6443 31.4553 13.8932C31.8115 13.1422 31.9948 12.3371 31.9948 11.5239C31.9948 10.7108 31.8115 9.90567 31.4553 9.15463C31.0992 8.40359 30.5772 7.7214 29.9193 7.14714C29.8523 7.08857 29.778 7.03643 29.7087 6.98V2.66643C29.7087 1.95937 29.3877 1.28126 28.8164 0.781231C28.2451 0.2812 27.4703 0.000189407 26.6621 0H5.32829C4.52008 0 3.74497 0.280927 3.17347 0.780979C2.60199 1.28103 2.28094 1.95925 2.28094 2.66643V6.97786C2.21073 7.035 2.13645 7.08714 2.06869 7.14714C0.744789 8.30848 0.00131411 9.88183 0.00131411 11.5221C0.00131411 13.1625 0.744789 14.7358 2.06869 15.8971L2.28094 16.0829V22.5829L2.06705 22.7664ZM26.6613 38.6664H5.32829C4.92407 38.6664 4.53641 38.5259 4.2506 38.2758C3.96478 38.0257 3.80419 37.6865 3.80419 37.3329V36.2957C4.26557 36.5356 4.79163 36.6635 5.32829 36.6664H26.6613C27.198 36.6637 27.7242 36.5358 28.1855 36.2957V37.3329C28.1855 37.508 28.146 37.6814 28.0695 37.8432C27.9928 38.005 27.8806 38.152 27.7391 38.2758C27.5975 38.3997 27.4295 38.4979 27.2446 38.5649C27.0596 38.6319 26.8615 38.6664 26.6613 38.6664ZM28.1855 34C28.1855 34.1751 28.146 34.3485 28.0695 34.5103C27.9928 34.6721 27.8806 34.8191 27.7391 34.943C27.5975 35.0668 27.4295 35.165 27.2446 35.2321C27.0596 35.2991 26.8615 35.3336 26.6613 35.3336H5.32829C4.92407 35.3336 4.53641 35.1931 4.2506 34.943C3.96478 34.6929 3.80419 34.3537 3.80419 34V32.635C5.13831 33.2425 6.65906 33.462 8.14546 33.2614C9.63186 33.0609 11.0065 32.4509 12.0695 31.52L15.9952 28.085L19.9201 31.52C20.9849 32.4487 22.3596 33.057 23.8457 33.257C25.3316 33.4569 26.8517 33.2381 28.1863 32.6321L28.1855 34ZM28.1855 21.2521L25.9944 19.3336L28.1855 17.4179V21.2521ZM30.4712 11.5186C30.4705 12.1572 30.326 12.7894 30.0459 13.379C29.7657 13.9687 29.3554 14.5042 28.8385 14.955L24.9128 18.3914L17.0695 11.525L20.9952 8.09C21.7711 7.41091 22.7596 6.94829 23.8359 6.76059C24.9121 6.57289 26.0279 6.66854 27.0419 7.03544C28.0561 7.40235 28.9232 8.02406 29.5337 8.822C30.1442 9.61995 30.4699 10.5583 30.4712 11.5186ZM21.8531 1.33357L20.8736 2.24571C20.7307 2.3786 20.5584 2.48452 20.3671 2.55699C20.1756 2.62946 19.9695 2.66695 19.7609 2.66714H12.2206C12.0121 2.66715 11.8059 2.62975 11.6147 2.55726C11.4235 2.48478 11.2512 2.37874 11.1087 2.24571L10.1291 1.33357H21.8531ZM3.80419 2.66643C3.80419 2.31274 3.96478 1.97354 4.2506 1.72345C4.53641 1.47336 4.92407 1.33286 5.32829 1.33286H8.04583L10.0001 3.15643C10.2851 3.42193 10.629 3.6337 11.0108 3.77876C11.3926 3.92382 11.8043 3.9991 12.2206 4H19.7634C20.1801 3.99925 20.5922 3.92411 20.9745 3.77919C21.3569 3.63426 21.7015 3.4226 21.9871 3.15714L23.9405 1.33286H26.658C27.0623 1.33286 27.4499 1.47336 27.7357 1.72345C28.0216 1.97354 28.1821 2.31274 28.1821 2.66643V6.03357C26.8479 5.4252 25.3265 5.20515 23.8394 5.40542C22.3523 5.6057 20.9771 6.21585 19.9136 7.14714L15.9952 10.5821L12.0703 7.14786C11.0064 6.2179 9.63173 5.60858 8.14546 5.40823C6.6592 5.20788 5.13863 5.42691 3.80419 6.03357V2.66643ZM3.14542 8.09C4.18632 7.17991 5.59761 6.66868 7.0691 6.66868C8.5406 6.66868 9.95187 7.17991 10.9928 8.09L28.8426 23.7143C29.8363 24.6331 30.3811 25.8549 30.3612 27.1198C30.3413 28.3847 29.7581 29.5929 28.7359 30.4874C27.7136 31.3819 26.3328 31.8921 24.8872 31.9095C23.4416 31.927 22.0453 31.4502 20.9952 30.5807L3.14542 14.955C2.10582 14.0443 1.52188 12.8097 1.52188 11.5225C1.52188 10.2353 2.10582 9.00073 3.14542 8.09ZM3.80419 17.4171L5.99277 19.3329L3.80419 21.2464V17.4171Z" fill="#48BE00"/>
<path fill-rule="evenodd" clip-rule="evenodd" d="M5.22155 26.8764C5.32801 26.7832 5.40049 26.6645 5.42982 26.5352C5.45916 26.4059 5.44404 26.272 5.38637 26.1503C5.3287 26.0285 5.23108 25.9244 5.10585 25.8512C4.98061 25.778 4.83338 25.739 4.68277 25.739C4.53217 25.739 4.38493 25.778 4.2597 25.8512C4.13446 25.9244 4.03684 26.0285 3.97917 26.1503C3.92151 26.272 3.90639 26.4059 3.93573 26.5352C3.96507 26.6645 4.03755 26.7832 4.14399 26.8764C4.21474 26.9384 4.29873 26.9875 4.39117 27.021C4.48362 27.0546 4.5827 27.0718 4.68277 27.0718C4.78284 27.0718 4.88194 27.0546 4.97438 27.021C5.06683 26.9875 5.15082 26.9384 5.22155 26.8764Z" fill="#00BE35"/>
<path d="M7.91532 24.2429C8.33596 24.2429 8.67696 23.9445 8.67696 23.5764C8.67696 23.2084 8.33596 22.91 7.91532 22.91C7.49468 22.91 7.15369 23.2084 7.15369 23.5764C7.15369 23.9445 7.49468 24.2429 7.91532 24.2429Z" fill="#00BE35"/>
<path fill-rule="evenodd" clip-rule="evenodd" d="M11.6869 26.8764C11.7933 26.7832 11.8659 26.6645 11.8951 26.5352C11.9245 26.4059 11.9094 26.272 11.8517 26.1503C11.7941 26.0285 11.6964 25.9244 11.5712 25.8512C11.446 25.778 11.2987 25.739 11.1481 25.739C10.9975 25.739 10.8503 25.778 10.725 25.8512C10.5998 25.9244 10.5022 26.0285 10.4445 26.1503C10.3868 26.272 10.3717 26.4059 10.4011 26.5352C10.4304 26.6645 10.5029 26.7832 10.6093 26.8764C10.6801 26.9384 10.7641 26.9875 10.8565 27.021C10.9489 27.0546 11.048 27.0718 11.1481 27.0718C11.2482 27.0718 11.3473 27.0546 11.4397 27.021C11.5321 26.9875 11.6161 26.9384 11.6869 26.8764Z" fill="#00BE35"/>
<path fill-rule="evenodd" clip-rule="evenodd" d="M8.45581 26.8764C8.56227 26.7832 8.63474 26.6645 8.66408 26.5352C8.69341 26.4059 8.67829 26.272 8.62064 26.1503C8.56297 26.0285 8.46534 25.9244 8.34011 25.8512C8.21486 25.778 8.06764 25.739 7.91704 25.739C7.76642 25.739 7.6192 25.778 7.49396 25.8512C7.36873 25.9244 7.27109 26.0285 7.21344 26.1503C7.15577 26.272 7.14065 26.4059 7.16998 26.5352C7.19932 26.6645 7.2718 26.7832 7.37826 26.8764C7.44899 26.9384 7.53298 26.9875 7.62542 27.021C7.71787 27.0546 7.81696 27.0718 7.91704 27.0718C8.0171 27.0718 8.1162 27.0546 8.20865 27.021C8.30109 26.9875 8.38508 26.9384 8.45581 26.8764Z" fill="#00BE35"/>
<path d="M4.67484 10.2805L5.89431 10.6647L5.23584 11.4549L4.67484 10.2805Z" fill="#00BE35"/>
<path d="M4.69291 13.3405L5.21358 12.1467L5.89855 12.9129L4.69291 13.3405Z" fill="#00BE35"/>
<path d="M6.63507 12.2699L7.8478 12.6759L7.17598 13.4542L6.63507 12.2699Z" fill="#00BE35"/>
<path d="M7.71584 10.1827L7.36233 11.4391L6.58 10.7781L7.71584 10.1827Z" fill="#00BE35"/>
<path d="M6.24388 11.2L6.3315 11.4764H6.61503L6.38565 11.6472L6.47326 11.9236L6.24388 11.7528L6.0145 11.9236L6.10212 11.6472L5.87274 11.4764H6.15627L6.24388 11.2Z" fill="#00BE35"/>
<path d="M24.187 25.8805L25.4065 26.2647L24.748 27.0549L24.187 25.8805Z" fill="#00BE35"/>
<path d="M24.2051 28.9405L24.7258 27.7467L25.4108 28.5129L24.2051 28.9405Z" fill="#00BE35"/>
<path d="M26.1472 27.8699L27.3599 28.2759L26.6881 29.0542L26.1472 27.8699Z" fill="#00BE35"/>
<path d="M27.228 25.7827L26.8745 27.0391L26.0922 26.3781L27.228 25.7827Z" fill="#00BE35"/>
<path d="M25.7561 26.8L25.8437 27.0764H26.1272L25.8979 27.2472L25.9855 27.5236L25.7561 27.3528L25.5267 27.5236L25.6143 27.2472L25.3849 27.0764H25.6685L25.7561 26.8Z" fill="#00BE35"/>
<path d="M23.7968 10.2805L25.0163 10.6647L24.3578 11.4549L23.7968 10.2805Z" fill="#00BE35"/>
<path d="M23.8149 13.3405L24.3355 12.1467L25.0205 12.9129L23.8149 13.3405Z" fill="#00BE35"/>
<path d="M25.757 12.2699L26.9698 12.6759L26.2979 13.4542L25.757 12.2699Z" fill="#00BE35"/>
<path d="M26.8378 10.1827L26.4843 11.4391L25.7019 10.7781L26.8378 10.1827Z" fill="#00BE35"/>
<path d="M25.3658 11.2L25.4534 11.4764H25.737L25.5076 11.6472L25.5952 11.9236L25.3658 11.7528L25.1365 11.9236L25.2241 11.6472L24.9947 11.4764H25.2782L25.3658 11.2Z" fill="#00BE35"/>
<ellipse cx="15.6098" cy="19.4" rx="2.34146" ry="1.8" fill="#00BE35"/>
</g>
<defs>
<clipPath id="clip0_105_28">
<rect width="32" height="40" fill="white"/>
</clipPath>
</defs>
</svg>
