<svg width="32" height="40" viewBox="0 0 32 40" fill="none" xmlns="http://www.w3.org/2000/svg">
<path d="M5.06369 40H28.4942C28.9338 40.0001 29.3691 39.9312 29.7753 39.7972C30.1815 39.6633 30.5505 39.4669 30.8614 39.2193C31.1722 38.9717 31.4189 38.6777 31.5872 38.3541C31.7554 38.0306 31.842 37.6838 31.842 37.3336V30C31.8411 29.767 31.7634 29.5384 31.6166 29.3369C31.4697 29.1354 31.2589 28.9682 31.0055 28.8521V24.3521C31.2672 24.1771 31.4779 23.9585 31.6223 23.7117C31.7668 23.4649 31.8419 23.1959 31.842 22.9236V2.66643C31.842 1.95925 31.4894 1.28103 30.8617 0.780979C30.2341 0.280927 29.3826 0 28.4951 0H5.06369C4.17602 0 3.32471 0.280927 2.69703 0.780979C2.06936 1.28103 1.71674 1.95925 1.71674 2.66643V7.33286C1.71761 7.56582 1.79535 7.7945 1.94217 7.99597C2.089 8.19744 2.29973 8.36461 2.55325 8.48071V15.3379C2.29294 15.5047 2.08273 15.7158 1.938 15.9556C1.79326 16.1955 1.71767 16.4581 1.71674 16.7243V37.3336C1.71674 38.0408 2.06936 38.719 2.69703 39.219C3.32471 39.7191 4.17602 40 5.06369 40ZM28.4942 38.6664H5.06369C4.61973 38.6664 4.19396 38.5259 3.88004 38.2758C3.56611 38.0257 3.38977 37.6865 3.38977 37.3329V36.2957C3.89649 36.5356 4.47429 36.6635 5.06369 36.6664H28.4942C29.0836 36.6637 29.6614 36.5358 30.168 36.2957V37.3329C30.168 37.6864 29.9918 38.0255 29.6781 38.2756C29.3643 38.5257 28.9379 38.6662 28.4942 38.6664ZM13.9273 15.4486C14.0524 15.4495 10.3625 8.69014 10.4752 8.73336C10.5878 8.77657 7.17066 8.66643 10.766 8.91643L7.17066 8.66643C7.40664 8.90123 13.6442 11.6742 13.9847 11.8041C14.3253 11.9339 14.6983 12.0009 15.0759 12L14.7143 10.6012L14.953 15.5464C14.7934 15.625 14.6049 15.658 14.4187 15.6403C14.2324 15.6225 14.0592 15.5549 13.9273 15.4486L11.4859 13.5036C11.1269 13.2186 10.6678 13.0271 10.1693 12.9545C9.67071 12.8819 4.68947 8.50103 4.22717 8.66643L13.9273 15.4486ZM26.666 28.6664C26.5566 28.6658 26.4486 28.6477 26.348 28.6134C26.2475 28.579 26.1566 28.5291 26.0805 28.4664L24.5429 27.2486C24.3097 27.063 24.0326 26.916 23.7279 26.8161C23.423 26.7162 23.0964 26.6653 22.7668 26.6664L29.3279 28.6693L22.9254 24.1564C22.9924 24.1227 23.072 24.1086 23.1507 24.1164C23.2293 24.1242 23.3021 24.1535 23.3567 24.1993L25.088 25.5707C25.3841 25.8032 25.7623 25.9581 26.172 26.0148C26.5817 26.0715 27.0034 26.0272 27.3806 25.8879L29.3279 25.1021V28.6693L26.666 28.6664ZM23.216 1.33357L22.14 2.24571C21.9831 2.3786 21.7938 2.48452 21.5837 2.55699C21.3735 2.62946 21.147 2.66695 20.9179 2.66714H12.6335C12.4046 2.66715 12.1782 2.62975 11.9681 2.55726C11.7581 2.48478 11.569 2.37874 11.4124 2.24571L10.3365 1.33357H23.216ZM3.39066 2.66643C3.39066 2.31274 3.56702 1.97354 3.88095 1.72345C4.19486 1.47336 4.62063 1.33286 5.06458 1.33286H8.04932L10.1957 3.15643C10.509 3.42219 10.8872 3.63412 11.307 3.77918C11.7269 3.92425 12.1795 3.9994 12.6371 4H20.9216C21.3792 3.99925 21.8319 3.92411 22.2519 3.77919C22.6717 3.63426 23.0502 3.4226 23.3639 3.15714L25.5094 1.33286H28.4942C28.938 1.33286 29.3638 1.47336 29.6777 1.72345C29.9917 1.97354 30.168 2.31274 30.168 2.66643V22.9236C30.1685 23.0261 30.1331 23.1268 30.0659 23.2142C29.9984 23.3016 29.9019 23.3724 29.7871 23.4186L26.6642 24.685C26.5996 24.7083 26.5275 24.7154 26.4577 24.7053C26.3879 24.6952 26.3235 24.6685 26.2733 24.6286L24.5474 23.26C24.2267 22.9991 23.8036 22.8335 23.3484 22.7906C22.8932 22.7477 22.4332 22.8302 22.045 23.0243L16.6521 25.7521C16.3727 25.8938 16.1585 26.1039 16.0417 26.3508C15.9249 26.5977 15.9119 26.8681 16.0044 27.1215C16.097 27.3748 16.2902 27.5974 16.5551 27.7558C16.8199 27.9142 17.1421 27.9999 17.4734 28H22.7704C22.8804 27.9999 22.9893 28.017 23.091 28.0505C23.1928 28.0839 23.2852 28.133 23.363 28.195L24.8872 29.4057C25.1193 29.594 25.3961 29.7436 25.7015 29.8458C26.0069 29.9479 26.3347 30.0006 26.666 30.0007H30.1626V34.0007C30.1626 34.3544 29.9863 34.6936 29.6723 34.9437C29.3585 35.1938 28.9328 35.3343 28.4888 35.3343H5.06369C4.61973 35.3343 4.19396 35.1938 3.88004 34.9437C3.56611 34.6936 3.38977 34.3544 3.38977 34.0007V16.7264C3.39013 16.6396 3.42186 16.5547 3.48116 16.4819C3.54047 16.4091 3.62483 16.3514 3.72418 16.3157L9.37268 14.3157C9.47978 14.2773 9.59593 14.2576 9.71337 14.2579C9.93494 14.2584 10.1474 14.3282 10.3051 14.4521L12.7402 16.3921C13.1378 16.712 13.6599 16.9149 14.2211 16.9674C14.7822 17.02 15.3492 16.9192 15.829 16.6814L23.5961 12.875C23.8746 12.7393 24.0898 12.5347 24.2088 12.2924C24.3276 12.0502 24.3437 11.7836 24.2546 11.5334C24.1654 11.2831 23.976 11.063 23.7151 10.9066C23.4542 10.7502 23.1363 10.6661 22.8098 10.6671H15.0759C4.22717 8.66643 14.8271 10.6444 14.7143 10.6012C14.6014 10.5579 14.5023 10.495 14.4241 10.4171L12.0813 8.08357C11.8448 7.8508 11.5464 7.66277 11.2076 7.53307C10.8688 7.40336 10.4981 7.33522 10.1222 7.33357H3.39784L3.39066 2.66643Z" fill="#00BE35"/>
</svg>
