<svg width="616" height="274" viewBox="0 0 616 274" fill="none" xmlns="http://www.w3.org/2000/svg">
<g filter="url(#filter0_dd_108_5)">
<path fill-rule="evenodd" clip-rule="evenodd" d="M12 8C12 4.68629 14.6863 2 18 2H598C601.314 2 604 4.68629 604 8V30.36C601.097 31.3118 599 34.0435 599 37.2649C599 40.4864 601.097 43.2181 604 44.1698V52.8899C601.097 53.8416 599 56.5733 599 59.7948C599 63.0163 601.097 65.748 604 66.6997V75.4198C601.097 76.3715 599 79.1032 599 82.3247C599 85.5461 601.097 88.2778 604 89.2296V97.9496C601.097 98.9014 599 101.633 599 104.855C599 108.076 601.097 110.808 604 111.759V120.479C601.097 121.431 599 124.163 599 127.384C599 130.606 601.097 133.338 604 134.289V197.36C601.097 198.312 599 201.043 599 204.265C599 207.486 601.097 210.218 604 211.17V246C604 249.314 601.314 252 598 252H18C14.6863 252 12 249.314 12 246V211.078C14.766 210.051 16.7369 207.388 16.7369 204.265C16.7369 201.142 14.766 198.479 12 197.452V138.548C14.766 137.521 16.7369 134.858 16.7369 131.735C16.7369 128.612 14.766 125.949 12 124.922V114.93C14.766 113.904 16.7369 111.241 16.7369 108.117C16.7369 104.994 14.766 102.331 12 101.304V91.313C14.766 90.2863 16.7369 87.6233 16.7369 84.5C16.7369 81.3767 14.766 78.7137 12 77.687V67.6955C14.766 66.6687 16.7369 64.0058 16.7369 60.8825C16.7369 57.7592 14.766 55.0962 12 54.0695V44.0779C14.766 43.0512 16.7369 40.3882 16.7369 37.2649C16.7369 34.1416 14.766 31.4787 12 30.4519V8Z" fill="white"/>
<mask id="mask0_108_5" style="mask-type:luminance" maskUnits="userSpaceOnUse" x="12" y="2" width="592" height="250">
<path fill-rule="evenodd" clip-rule="evenodd" d="M12 8C12 4.68629 14.6863 2 18 2H598C601.314 2 604 4.68629 604 8V30.36C601.097 31.3118 599 34.0435 599 37.2649C599 40.4864 601.097 43.2181 604 44.1698V52.8899C601.097 53.8416 599 56.5733 599 59.7948C599 63.0163 601.097 65.748 604 66.6997V75.4198C601.097 76.3715 599 79.1032 599 82.3247C599 85.5461 601.097 88.2778 604 89.2296V97.9496C601.097 98.9014 599 101.633 599 104.855C599 108.076 601.097 110.808 604 111.759V120.479C601.097 121.431 599 124.163 599 127.384C599 130.606 601.097 133.338 604 134.289V197.36C601.097 198.312 599 201.043 599 204.265C599 207.486 601.097 210.218 604 211.17V246C604 249.314 601.314 252 598 252H18C14.6863 252 12 249.314 12 246V211.078C14.766 210.051 16.7369 207.388 16.7369 204.265C16.7369 201.142 14.766 198.479 12 197.452V138.548C14.766 137.521 16.7369 134.858 16.7369 131.735C16.7369 128.612 14.766 125.949 12 124.922V114.93C14.766 113.904 16.7369 111.241 16.7369 108.117C16.7369 104.994 14.766 102.331 12 101.304V91.313C14.766 90.2863 16.7369 87.6233 16.7369 84.5C16.7369 81.3767 14.766 78.7137 12 77.687V67.6955C14.766 66.6687 16.7369 64.0058 16.7369 60.8825C16.7369 57.7592 14.766 55.0962 12 54.0695V44.0779C14.766 43.0512 16.7369 40.3882 16.7369 37.2649C16.7369 34.1416 14.766 31.4787 12 30.4519V8Z" fill="#3200BE"/>
</mask>
<g mask="url(#mask0_108_5)">
<path d="M604 30.36L604.397 31.5714L605.275 31.2837V30.36H604ZM604 44.1698H605.275V43.2462L604.397 42.9585L604 44.1698ZM604 52.8899L604.397 54.1013L605.275 53.8135V52.8899H604ZM604 66.6997H605.275V65.7761L604.397 65.4883L604 66.6997ZM604 75.4198L604.397 76.6311L605.275 76.3434V75.4198H604ZM604 89.2296H605.275V88.3059L604.397 88.0182L604 89.2296ZM604 97.9496L604.397 99.161L605.275 98.8733V97.9496H604ZM604 111.759H605.275V110.836L604.397 110.548L604 111.759ZM604 120.479L604.397 121.691L605.275 121.403V120.479H604ZM604 134.289H605.275V133.366L604.397 133.078L604 134.289ZM604 197.36L604.397 198.571L605.275 198.284V197.36H604ZM604 211.17H605.275V210.246L604.397 209.958L604 211.17ZM12 211.078L11.5564 209.883L10.7252 210.191V211.078H12ZM12 197.452H10.7252V198.339L11.5564 198.647L12 197.452ZM12 138.548L11.5564 137.353L10.7252 137.661V138.548H12ZM12 124.922H10.7252V125.809L11.5564 126.117L12 124.922ZM12 114.93L11.5564 113.735L10.7252 114.044V114.93H12ZM12 101.304H10.7252V102.191L11.5564 102.499L12 101.304ZM12 91.313L11.5564 90.1179L10.7252 90.4264V91.313H12ZM12 77.687H10.7252V78.5736L11.5564 78.8821L12 77.687ZM12 67.6955L11.5564 66.5003L10.7252 66.8089V67.6955H12ZM12 54.0695H10.7252V54.9561L11.5564 55.2646L12 54.0695ZM12 44.0779L11.5564 42.8828L10.7252 43.1913V44.0779H12ZM12 30.4519H10.7252V31.3385L11.5564 31.6471L12 30.4519ZM18 0.72522C13.9822 0.72522 10.7252 3.98226 10.7252 8.00003H13.2748C13.2748 5.39038 15.3903 3.27484 18 3.27484V0.72522ZM598 0.72522H18V3.27484H598V0.72522ZM605.275 8.00003C605.275 3.98227 602.018 0.72522 598 0.72522V3.27484C600.61 3.27484 602.725 5.39038 602.725 8.00003H605.275ZM605.275 30.36V8.00003H602.725V30.36H605.275ZM600.275 37.2649C600.275 34.6107 602.002 32.3566 604.397 31.5714L603.603 29.1486C600.192 30.2669 597.725 33.4762 597.725 37.2649H600.275ZM604.397 42.9585C602.002 42.1733 600.275 39.9192 600.275 37.2649H597.725C597.725 41.0536 600.192 44.2629 603.603 45.3812L604.397 42.9585ZM605.275 52.8899V44.1698H602.725V52.8899H605.275ZM600.275 59.7948C600.275 57.1406 602.002 54.8864 604.397 54.1013L603.603 51.6785C600.192 52.7968 597.725 56.0061 597.725 59.7948H600.275ZM604.397 65.4883C602.002 64.7032 600.275 62.449 600.275 59.7948H597.725C597.725 63.5835 600.192 66.7928 603.603 67.9111L604.397 65.4883ZM605.275 75.4198V66.6997H602.725V75.4198H605.275ZM600.275 82.3247C600.275 79.6705 602.002 77.4163 604.397 76.6311L603.603 74.2084C600.192 75.3267 597.725 78.536 597.725 82.3247H600.275ZM604.397 88.0182C602.002 87.233 600.275 84.9789 600.275 82.3247H597.725C597.725 86.1134 600.192 89.3227 603.603 90.441L604.397 88.0182ZM605.275 97.9496V89.2296H602.725V97.9496H605.275ZM600.275 104.855C600.275 102.2 602.002 99.9462 604.397 99.161L603.603 96.7382C600.192 97.8565 597.725 101.066 597.725 104.855H600.275ZM604.397 110.548C602.002 109.763 600.275 107.509 600.275 104.855H597.725C597.725 108.643 600.192 111.853 603.603 112.971L604.397 110.548ZM605.275 120.479V111.759H602.725V120.479H605.275ZM600.275 127.384C600.275 124.73 602.002 122.476 604.397 121.691L603.603 119.268C600.192 120.386 597.725 123.596 597.725 127.384H600.275ZM604.397 133.078C602.002 132.293 600.275 130.039 600.275 127.384H597.725C597.725 131.173 600.192 134.382 603.603 135.501L604.397 133.078ZM605.275 197.36V134.289H602.725V197.36H605.275ZM600.275 204.265C600.275 201.611 602.002 199.357 604.397 198.571L603.603 196.149C600.192 197.267 597.725 200.476 597.725 204.265H600.275ZM604.397 209.958C602.002 209.173 600.275 206.919 600.275 204.265H597.725C597.725 208.054 600.192 211.263 603.603 212.381L604.397 209.958ZM605.275 246V211.17H602.725V246H605.275ZM598 253.275C602.018 253.275 605.275 250.018 605.275 246H602.725C602.725 248.61 600.61 250.725 598 250.725V253.275ZM18 253.275H598V250.725H18V253.275ZM10.7252 246C10.7252 250.018 13.9822 253.275 18 253.275V250.725C15.3903 250.725 13.2748 248.61 13.2748 246H10.7252ZM10.7252 211.078V246H13.2748V211.078H10.7252ZM15.4621 204.265C15.4621 206.838 13.8389 209.036 11.5564 209.883L12.4436 212.273C15.693 211.067 18.0117 207.938 18.0117 204.265H15.4621ZM11.5564 198.647C13.8389 199.494 15.4621 201.692 15.4621 204.265H18.0117C18.0117 200.592 15.693 197.463 12.4436 196.257L11.5564 198.647ZM10.7252 138.548V197.452H13.2748V138.548H10.7252ZM15.4621 131.735C15.4621 134.308 13.8389 136.506 11.5564 137.353L12.4436 139.743C15.693 138.537 18.0117 135.408 18.0117 131.735H15.4621ZM11.5564 126.117C13.8389 126.964 15.4621 129.162 15.4621 131.735H18.0117C18.0117 128.062 15.693 124.933 12.4436 123.727L11.5564 126.117ZM10.7252 114.93V124.922H13.2748V114.93H10.7252ZM15.4621 108.117C15.4621 110.691 13.8389 112.888 11.5564 113.735L12.4436 116.125C15.693 114.919 18.0117 111.791 18.0117 108.117H15.4621ZM11.5564 102.499C13.8389 103.347 15.4621 105.544 15.4621 108.117H18.0117C18.0117 104.444 15.693 101.315 12.4436 100.109L11.5564 102.499ZM10.7252 91.313V101.304H13.2748V91.313H10.7252ZM15.4621 84.5C15.4621 87.0732 13.8389 89.2706 11.5564 90.1179L12.4436 92.5081C15.693 91.3019 18.0117 88.1734 18.0117 84.5H15.4621ZM11.5564 78.8821C13.8389 79.7294 15.4621 81.9268 15.4621 84.5H18.0117C18.0117 80.8266 15.693 77.6981 12.4436 76.4919L11.5564 78.8821ZM10.7252 67.6955V77.687H13.2748V67.6955H10.7252ZM15.4621 60.8825C15.4621 63.4557 13.8389 65.653 11.5564 66.5003L12.4436 68.8906C15.693 67.6844 18.0117 64.5558 18.0117 60.8825H15.4621ZM11.5564 55.2646C13.8389 56.1119 15.4621 58.3092 15.4621 60.8825H18.0117C18.0117 57.2091 15.693 54.0805 12.4436 52.8743L11.5564 55.2646ZM10.7252 44.0779V54.0695H13.2748V44.0779H10.7252ZM15.4621 37.2649C15.4621 39.8382 13.8389 42.0355 11.5564 42.8828L12.4436 45.2731C15.693 44.0669 18.0117 40.9383 18.0117 37.2649H15.4621ZM11.5564 31.6471C13.8389 32.4944 15.4621 34.6917 15.4621 37.2649H18.0117C18.0117 33.5916 15.693 30.463 12.4436 29.2568L11.5564 31.6471ZM10.7252 8.00003V30.4519H13.2748V8.00003H10.7252Z" fill="#00BE35"/>
</g>
</g>
<defs>
<filter id="filter0_dd_108_5" x="-3" y="-3" width="622" height="280" filterUnits="userSpaceOnUse" color-interpolation-filters="sRGB">
<feFlood flood-opacity="0" result="BackgroundImageFix"/>
<feColorMatrix in="SourceAlpha" type="matrix" values="0 0 0 0 0 0 0 0 0 0 0 0 0 0 0 0 0 0 127 0" result="hardAlpha"/>
<feOffset dy="4"/>
<feGaussianBlur stdDeviation="3"/>
<feComposite in2="hardAlpha" operator="out"/>
<feColorMatrix type="matrix" values="0 0 0 0 0.0666667 0 0 0 0 0.0941176 0 0 0 0 0.152941 0 0 0 0.1 0"/>
<feBlend mode="normal" in2="BackgroundImageFix" result="effect1_dropShadow_108_5"/>
<feColorMatrix in="SourceAlpha" type="matrix" values="0 0 0 0 0 0 0 0 0 0 0 0 0 0 0 0 0 0 127 0" result="hardAlpha"/>
<feOffset dy="10"/>
<feGaussianBlur stdDeviation="7.5"/>
<feComposite in2="hardAlpha" operator="out"/>
<feColorMatrix type="matrix" values="0 0 0 0 0.0666667 0 0 0 0 0.0941176 0 0 0 0 0.152941 0 0 0 0.1 0"/>
<feBlend mode="normal" in2="effect1_dropShadow_108_5" result="effect2_dropShadow_108_5"/>
<feBlend mode="normal" in="SourceGraphic" in2="effect2_dropShadow_108_5" result="shape"/>
</filter>
</defs>
</svg>
