<svg width="24" height="40" viewBox="0 0 24 40" fill="none" xmlns="http://www.w3.org/2000/svg">
<path d="M2.66643 40H21.3329C21.6831 40.0001 22.0299 39.9312 22.3535 39.7972C22.6771 39.6633 22.9711 39.4669 23.2188 39.2193C23.4664 38.9717 23.6629 38.6777 23.797 38.3541C23.931 38.0306 24 37.6838 24 37.3336V30C23.9993 29.767 23.9374 29.5384 23.8204 29.3369C23.7034 29.1354 23.5355 28.9682 23.3336 28.8521V24.3521C23.5421 24.1771 23.7099 23.9585 23.825 23.7117C23.9401 23.4649 23.9999 23.1959 24 22.9236V2.66643C24 1.95925 23.7191 1.28103 23.219 0.780979C22.719 0.280927 22.0407 0 21.3336 0L2.66643 0C1.95925 0 1.28103 0.280927 0.780977 0.780979C0.280925 1.28103 0 1.95925 0 2.66643V7.33286C0.000693918 7.56582 0.0626317 7.7945 0.179601 7.99597C0.296571 8.19744 0.464459 8.36461 0.666428 8.48071V15.3379C0.459045 15.5047 0.291577 15.7158 0.176272 15.9556C0.0609663 16.1955 0.000740785 16.4581 0 16.7243V37.3336C0 38.0408 0.280925 38.719 0.780977 39.219C1.28103 39.7191 1.95925 40 2.66643 40ZM21.3329 38.6664H2.66643C2.31274 38.6664 1.97354 38.5259 1.72345 38.2758C1.47335 38.0257 1.33286 37.6865 1.33286 37.3329V36.2957C1.73655 36.5356 2.19687 36.6635 2.66643 36.6664H21.3329C21.8025 36.6637 22.2628 36.5358 22.6664 36.2957V37.3329C22.6664 37.6864 22.526 38.0255 22.2761 38.2756C22.0261 38.5257 21.6864 38.6662 21.3329 38.6664ZM6.69 8.66643C6.78962 8.66729 6.88783 8.69014 6.9776 8.73336C7.06737 8.77657 7.14648 8.83909 7.20928 8.91643L9.07572 11.25C9.26372 11.4848 9.50226 11.6742 9.77359 11.8041C10.0449 11.9339 10.3421 12.0009 10.6429 12H16.3093L10.545 15.5464C10.4178 15.625 10.2677 15.658 10.1193 15.6403C9.97091 15.6225 9.8329 15.5549 9.72785 15.4486L7.78285 13.5036C7.49687 13.2186 7.13109 13.0271 6.7339 12.9545C6.33672 12.8819 5.92687 12.9317 5.55857 13.0971L2 14.6779V8.66643H6.69ZM19.8764 28.6664C19.7893 28.6658 19.7032 28.6477 19.6231 28.6134C19.543 28.579 19.4706 28.5291 19.41 28.4664L18.185 27.2486C17.9992 27.063 17.7785 26.916 17.5357 26.8161C17.2928 26.7162 17.0326 26.6653 16.77 26.6664H12.9436L16.8964 24.1564C16.9498 24.1227 17.0132 24.1086 17.0759 24.1164C17.1385 24.1242 17.1965 24.1535 17.24 24.1993L18.6193 25.5707C18.8552 25.8032 19.1565 25.9581 19.4829 26.0148C19.8093 26.0715 20.1452 26.0272 20.4457 25.8879L21.9971 25.1021V28.6693L19.8764 28.6664ZM17.1279 1.33357L16.2707 2.24571C16.1457 2.3786 15.9949 2.48452 15.8275 2.55699C15.66 2.62946 15.4796 2.66695 15.2971 2.66714H8.69714C8.51478 2.66715 8.33436 2.62975 8.16703 2.55726C7.9997 2.48478 7.84901 2.37874 7.72428 2.24571L6.86714 1.33357H17.1279ZM1.33357 2.66643C1.33357 2.31274 1.47407 1.97354 1.72417 1.72345C1.97426 1.47336 2.31346 1.33286 2.66714 1.33286H5.045L6.755 3.15643C7.00458 3.42219 7.30586 3.63412 7.64034 3.77918C7.97481 3.92425 8.33542 3.9994 8.7 4H15.3C15.6646 3.99925 16.0252 3.92411 16.3598 3.77919C16.6943 3.63426 16.9958 3.4226 17.2457 3.15714L18.955 1.33286H21.3329C21.6865 1.33286 22.0257 1.47336 22.2758 1.72345C22.5259 1.97354 22.6664 2.31274 22.6664 2.66643V22.9236C22.6668 23.0261 22.6386 23.1268 22.585 23.2142C22.5313 23.3016 22.4544 23.3724 22.3629 23.4186L19.875 24.685C19.8235 24.7083 19.7661 24.7154 19.7105 24.7053C19.6549 24.6952 19.6036 24.6685 19.5636 24.6286L18.1886 23.26C17.9331 22.9991 17.596 22.8335 17.2334 22.7906C16.8707 22.7477 16.5043 22.8302 16.195 23.0243L11.8986 25.7521C11.676 25.8938 11.5054 26.1039 11.4123 26.3508C11.3193 26.5977 11.3089 26.8681 11.3826 27.1215C11.4564 27.3748 11.6103 27.5974 11.8213 27.7558C12.0323 27.9142 12.289 27.9999 12.5529 28H16.7729C16.8605 27.9999 16.9473 28.017 17.0283 28.0505C17.1094 28.0839 17.183 28.133 17.245 28.195L18.4593 29.4057C18.6442 29.594 18.8647 29.7436 19.108 29.8458C19.3513 29.9479 19.6125 30.0006 19.8764 30.0007H22.6621V34.0007C22.6621 34.3544 22.5216 34.6936 22.2715 34.9437C22.0215 35.1938 21.6823 35.3343 21.3286 35.3343H2.66643C2.31274 35.3343 1.97354 35.1938 1.72345 34.9437C1.47335 34.6936 1.33286 34.3544 1.33286 34.0007V16.7264C1.33315 16.6396 1.35843 16.5547 1.40567 16.4819C1.45292 16.4091 1.52013 16.3514 1.59928 16.3157L6.09929 14.3157C6.18461 14.2773 6.27715 14.2576 6.37071 14.2579C6.54723 14.2584 6.71648 14.3282 6.84214 14.4521L8.78214 16.3921C9.09884 16.712 9.5148 16.9149 9.96187 16.9674C10.4089 17.02 10.8606 16.9192 11.2429 16.6814L17.4307 12.875C17.6526 12.7393 17.824 12.5347 17.9188 12.2924C18.0135 12.0502 18.0263 11.7836 17.9553 11.5334C17.8843 11.2831 17.7334 11.063 17.5255 10.9066C17.3177 10.7502 17.0644 10.6661 16.8043 10.6671H10.6429C10.5431 10.667 10.4447 10.6444 10.3548 10.6012C10.2649 10.5579 10.1859 10.495 10.1236 10.4171L8.25714 8.08357C8.06876 7.8508 7.83103 7.66277 7.56112 7.53307C7.29122 7.40336 6.99588 7.33522 6.69643 7.33357H1.33929L1.33357 2.66643Z" fill="#3200BE"/>
</svg>
