<svg width="36" height="34" viewBox="0 0 36 34" fill="none" xmlns="http://www.w3.org/2000/svg">
<g clip-path="url(#clip0_109_1239)">
<path d="M35.9882 8.45539V8.08778C35.9882 7.96524 35.9505 7.82385 35.894 7.69189C35.5546 6.95666 35.2153 6.23087 34.8854 5.49564C34.2633 4.13831 33.6129 2.74327 32.9813 1.35766C32.7928 0.942918 32.5195 0.763824 32.0293 0.763824C27.3823 0.763824 22.7448 0.763824 18.0978 0.763824C13.4508 0.763824 8.66243 0.763824 3.94947 0.763824C3.47817 0.763824 3.19539 0.942918 3.00687 1.35766C2.38476 2.72442 1.7438 4.11946 1.12169 5.45794C0.782353 6.20259 0.433593 6.93781 0.0942593 7.68246C0.0377037 7.81442 0 7.94639 0 8.07835V8.45539C0 9.55822 0 10.6893 0.00942593 11.811C0.0282778 12.7725 0.433593 13.5642 1.24422 14.1581C1.43274 14.2995 1.49872 14.4314 1.49872 14.6859C1.49872 19.7382 1.49872 24.8754 1.49872 29.8428V32.2747C1.49872 32.2747 1.49872 32.3407 1.49872 32.3784C1.4893 32.4821 1.47987 32.5952 1.53643 32.6895C1.62126 32.8403 1.77208 33.0382 1.96059 33.1513C2.04543 33.1985 2.14911 33.2079 2.23395 33.2079C2.28108 33.2079 2.31878 33.2079 2.36591 33.2079C2.40361 33.2079 2.44132 33.2079 2.47902 33.2079C6.43791 33.2079 10.3968 33.2079 14.3463 33.2079H17.8904V33.2362H20.049C20.4543 33.2362 20.869 33.2362 21.2743 33.2362C25.384 33.2362 29.5032 33.2173 33.6129 33.2079C33.6883 33.2079 33.7825 33.2079 33.8768 33.1985C34.2067 33.1702 34.4047 32.9722 34.4518 32.6518C34.4706 32.5198 34.4706 32.3878 34.4706 32.2653V30.5875C34.4706 25.3844 34.4706 20.0116 34.4706 14.7236C34.4706 14.4786 34.5366 14.3372 34.7346 14.1958C35.5546 13.5925 35.9694 12.7913 35.9882 11.8204C36.0071 10.6988 35.9976 9.55822 35.9976 8.45539H35.9882ZM29.1167 18.9276V31.926H21.6985V18.9276H29.1167ZM20.4354 18.5411C20.4354 21.6328 20.4354 24.7246 20.4354 27.8163V31.9542H2.74295V14.7896C2.84663 14.7896 2.95032 14.799 3.04458 14.799C4.06258 14.799 4.91091 14.3843 5.57073 13.5642C6.25882 14.3937 7.06945 14.7896 8.04975 14.7896H8.0686C9.03947 14.7896 9.86895 14.3749 10.5288 13.5737C11.1792 14.3466 12.0746 14.7896 13.0172 14.7896C13.9692 14.7896 14.8647 14.3466 15.5057 13.5737C16.1749 14.3843 17.0044 14.7896 17.9753 14.7896H17.9847C18.965 14.7896 19.7945 14.3749 20.4449 13.5737C21.1047 14.356 21.9813 14.7896 22.9239 14.7896C23.8947 14.7896 24.8185 14.3372 25.4217 13.5642C26.1193 14.3843 26.9299 14.7896 27.9008 14.7896C28.8905 14.7896 29.7105 14.3937 30.3421 13.6208C30.4552 13.7056 30.5683 13.7905 30.672 13.8753C30.9736 14.1109 31.2847 14.356 31.6334 14.5163C31.9728 14.6671 32.3404 14.7236 32.7363 14.7896C32.8777 14.8085 33.0285 14.8367 33.1699 14.865V31.9354H30.3327V18.5317C30.3327 17.8248 30.1724 17.6645 29.456 17.6645C28.0893 17.6645 26.7319 17.6645 25.3652 17.6645C23.9984 17.6645 22.6505 17.6645 21.2838 17.6645C20.5862 17.6645 20.4071 17.8436 20.3977 18.5411H20.4354ZM4.36421 2.01747C8.73784 2.01747 13.102 2.01747 17.4757 2.01747C22.1887 2.01747 26.911 2.01747 31.624 2.01747C31.8597 2.01747 31.9539 2.08346 32.0482 2.30025C32.5855 3.48792 33.1416 4.68501 33.6789 5.8444C33.8862 6.28742 34.0936 6.73987 34.301 7.18289C34.3293 7.25829 34.367 7.32427 34.3952 7.40911H1.60241C1.63069 7.34313 1.64954 7.28657 1.67782 7.23002C1.88519 6.77757 2.09256 6.33455 2.29993 5.88211C2.84663 4.70386 3.41219 3.47849 3.95889 2.27197C4.04373 2.07403 4.13799 2.01747 4.36421 2.01747ZM6.19284 8.70989H9.90666C9.90666 9.02094 9.90666 9.34142 9.90666 9.65248C9.91608 10.416 9.92551 11.2078 9.87838 11.9807C9.82182 12.8667 9.00177 13.5642 8.00262 13.5642C7.98377 13.5642 7.96491 13.5642 7.94606 13.5642C7.0129 13.536 6.22112 12.7725 6.18341 11.8581C6.15513 11.1983 6.16456 10.5197 6.17399 9.85985C6.17399 9.56765 6.17399 9.27544 6.17399 8.98324V8.70989H6.19284ZM14.8741 11.6791C14.9118 12.1126 14.7422 12.5745 14.4123 12.9421C14.0823 13.3192 13.6205 13.5454 13.1492 13.5548C13.1209 13.5548 13.0926 13.5548 13.0643 13.5548C12.0086 13.5548 11.2074 12.8196 11.1603 11.8204C11.132 11.1795 11.132 10.5197 11.1415 9.8787C11.1415 9.59592 11.1415 9.30372 11.1415 9.02094V8.70046H14.8553V10.3406C14.8553 10.482 14.8553 10.6139 14.8553 10.7553C14.8553 11.0569 14.8458 11.368 14.8647 11.6791H14.8741ZM16.1466 9.5865C16.1466 9.2943 16.1466 9.00209 16.1466 8.70989H19.8133C19.8133 8.70989 19.8133 8.70989 19.8133 8.71931C19.8133 8.78529 19.8322 8.84185 19.8322 8.89841V9.44511C19.8322 10.2086 19.8322 11.0004 19.8322 11.7733C19.8322 12.7819 19.0121 13.5642 17.9847 13.5642C16.9667 13.5642 16.156 12.7725 16.1466 11.7639C16.1466 11.0381 16.1466 10.3029 16.1466 9.5865ZM21.1141 8.70989H24.8091C24.8091 8.76644 24.8279 8.81357 24.8279 8.8607C24.8279 9.08692 24.8279 9.32257 24.8279 9.54879C24.8279 10.2557 24.8279 10.9815 24.8279 11.6979C24.8185 12.6499 24.1304 13.4417 23.2444 13.5548C23.1595 13.5642 23.0747 13.5737 22.9899 13.5737C22.1132 13.5737 21.3969 13.027 21.1706 12.1786C21.1706 12.1598 21.1706 12.1504 21.1612 12.1315C21.1612 12.1032 21.1424 12.0749 21.1424 12.0467C21.1424 11.9524 21.1424 11.8487 21.1424 11.7639C21.1424 10.9815 21.1424 8.70989 21.1424 8.70989H21.1141ZM26.0721 9.57707V8.70989H29.7954C29.7954 9.02094 29.7954 9.32257 29.7954 9.6242C29.7954 10.3877 29.8048 11.1135 29.7765 11.8581C29.7388 12.8384 28.9188 13.5737 27.8725 13.5737C27.8442 13.5737 27.8254 13.5737 27.7971 13.5737C26.8451 13.5454 26.0627 12.7159 26.0533 11.745C26.0533 11.0287 26.0533 10.3123 26.0533 9.5865L26.0721 9.57707ZM1.2348 9.37913V8.70989H4.93919C4.93919 9.02094 4.93919 9.34142 4.94862 9.65248C4.96747 10.416 4.97689 11.2078 4.91091 11.9713C4.82608 12.9139 4.06258 13.5737 3.054 13.5737C2.98802 13.5737 2.92204 13.5737 2.85606 13.5737C1.93232 13.4983 1.22537 12.6782 1.22537 11.6602C1.22537 10.9061 1.22537 10.1332 1.22537 9.38855L1.2348 9.37913ZM32.9342 13.5642C31.8879 13.5642 31.0867 12.8479 31.0396 11.8676C31.0019 11.1229 31.0113 10.3594 31.0207 9.61478C31.0207 9.31315 31.0207 9.01152 31.0207 8.70046H34.744V10.2275C34.744 10.3783 34.744 10.5197 34.744 10.6705C34.744 11.0098 34.744 11.3586 34.744 11.6979C34.7346 12.6971 33.9711 13.5171 33.019 13.5548C32.9908 13.5548 32.9625 13.5548 32.9342 13.5548V13.5642Z" fill="#00BE35"/>
</g>
<defs>
<clipPath id="clip0_109_1239">
<rect width="36" height="34" fill="white"/>
</clipPath>
</defs>
</svg>
