<svg width="32" height="40" viewBox="0 0 32 40" fill="none" xmlns="http://www.w3.org/2000/svg">
<path d="M25.3305 0H6.66952C5.96255 0 5.28453 0.280927 4.78462 0.780979C4.28472 1.28103 4.00387 1.95925 4.00387 2.66643V6.6C2.72733 7.47219 1.69155 8.65259 0.99252 10.0318C0.293494 11.4111 -0.0461585 12.9445 0.00503857 14.49C0.00503857 17.7043 1.47104 20.3657 4.00387 23.1564V37.3336C4.00387 38.0408 4.28472 38.719 4.78462 39.219C5.28453 39.7191 5.96255 40 6.66952 40H25.3305C26.0374 40 26.7155 39.7191 27.2154 39.219C27.7153 38.719 27.9962 38.0408 27.9962 37.3336V23.1557C30.529 20.3657 31.995 17.7021 31.995 14.4893C32.0461 12.9439 31.7065 11.4106 31.0074 10.0315C30.3084 8.65236 29.2726 7.47207 27.9962 6.6V2.66643C27.9962 1.95925 27.7153 1.28103 27.2154 0.780979C26.7155 0.280927 26.0374 0 25.3305 0ZM21.126 1.33357L20.2691 2.24571C20.1445 2.37869 19.994 2.48469 19.8268 2.55718C19.6597 2.62967 19.4794 2.66709 19.2973 2.66714H12.6992C12.5169 2.66693 12.3366 2.62944 12.1694 2.55697C12.0021 2.4845 11.8515 2.37857 11.7266 2.24571L10.8698 1.33357H21.126ZM5.33634 2.66643C5.33634 2.31274 5.4768 1.97354 5.72682 1.72345C5.97683 1.47336 6.31594 1.33286 6.66952 1.33286H9.04309L10.7569 3.15714C11.0065 3.42252 11.3076 3.63415 11.6418 3.77908C11.976 3.92401 12.3363 3.99918 12.7006 4H19.2987C19.6631 3.99949 20.0236 3.92445 20.358 3.77951C20.6923 3.63457 20.9935 3.42278 21.2431 3.15714L22.9533 1.33357H25.3305C25.5056 1.33357 25.6789 1.36807 25.8407 1.43508C26.0024 1.5021 26.1494 1.60033 26.2732 1.72417C26.397 1.848 26.4952 1.99501 26.5622 2.15681C26.6292 2.3186 26.6636 2.49202 26.6636 2.66714V5.91143C25.7099 5.52921 24.6919 5.33307 23.6645 5.33357C22.1912 5.32003 20.7343 5.64436 19.4058 6.28166C18.0772 6.91896 16.9122 7.85229 16.0004 9.01C15.0884 7.85219 13.9234 6.9188 12.5947 6.2815C11.2659 5.64419 9.80897 5.31992 8.33546 5.33357C7.30805 5.33307 6.29004 5.52921 5.33634 5.91143V2.66643ZM25.3305 38.6664H6.66952C6.31594 38.6664 5.97683 38.5259 5.72682 38.2758C5.4768 38.0257 5.33634 37.6865 5.33634 37.3329V36.2957C5.73992 36.5356 6.2001 36.6635 6.66952 36.6664H25.3305C25.8 36.6637 26.2602 36.5358 26.6636 36.2957V37.3329C26.6636 37.508 26.6292 37.6814 26.5622 37.8432C26.4952 38.005 26.397 38.152 26.2732 38.2758C26.1494 38.3997 26.0024 38.4979 25.8407 38.5649C25.6789 38.6319 25.5056 38.6664 25.3305 38.6664ZM25.3305 35.3329H6.66952C6.31606 35.3329 5.97707 35.1925 5.72707 34.9425C5.47707 34.6926 5.33653 34.3536 5.33634 34V24.54C7.08297 26.2736 9.19235 28.0957 11.5874 30.16C12.57 31.0057 13.6011 31.8936 14.6764 32.8357C15.0434 33.1556 15.5137 33.3318 16.0004 33.3318C16.487 33.3318 16.9574 33.1556 17.3243 32.8357C18.399 31.8943 19.4301 31.0057 20.4127 30.16C22.812 28.0936 24.9164 26.275 26.6636 24.54V34C26.6637 34.1752 26.6294 34.3486 26.5624 34.5104C26.4954 34.6723 26.3972 34.8193 26.2734 34.9432C26.1496 35.067 26.0025 35.1653 25.8408 35.2323C25.679 35.2992 25.5056 35.333 25.3305 35.3329ZM30.6625 14.4893C30.6625 19.5721 26.2388 23.3821 19.5429 29.1493C18.5582 29.9993 17.5235 30.8879 16.4466 31.8329C16.3228 31.9403 16.1643 31.9995 16.0004 31.9995C15.8364 31.9995 15.678 31.9403 15.5541 31.8329C14.4765 30.8886 13.4411 30 12.4571 29.15C5.75836 23.3829 1.33751 19.5714 1.33751 14.49C1.33751 10.03 4.34591 6.66643 8.33546 6.66643C9.74449 6.65169 2.76453 23.8693 4.00387 24.54C5.24321 25.2106 14.6612 9.31226 15.4198 10.5C15.4787 10.6013 15.5631 10.6853 15.6646 10.7437C15.7661 10.8021 15.8811 10.8328 15.9983 10.8328C16.1153 10.8328 16.2304 10.8021 16.3319 10.7437C16.4333 10.6853 16.5177 10.6013 16.5766 10.5C17.3356 9.31184 25.4237 25.2107 26.6636 24.54C27.9035 23.8693 22.2543 6.65121 23.6638 6.66643C27.6534 6.66643 30.6625 10.0293 30.6625 14.4893Z" fill="#00BE35"/>
</svg>
