<svg width="38" height="250" viewBox="0 0 38 250" fill="none" xmlns="http://www.w3.org/2000/svg">
<rect y="16" width="38" height="216" fill="#EEFFF5"/>
<path d="M38 19C30 19 25.8968 22.1284 18 22C10.8745 21.8841 7 19 0 19" stroke="#4ADE80"/>
<path d="M38 23C30 23 25.8968 26.1284 18 26C10.8745 25.8841 7 23 0 23" stroke="#4ADE80"/>
<path d="M38 27C30 27 25.8968 30.1284 18 30C10.8745 29.8841 7 27 0 27" stroke="#4ADE80"/>
<path d="M38 31C30 31 25.8968 34.1284 18 34C10.8745 33.8841 7 31 0 31" stroke="#4ADE80"/>
<path d="M38 35C30 35 25.8968 38.1284 18 38C10.8745 37.8841 7 35 0 35" stroke="#4ADE80"/>
<path d="M38 39C30 39 25.8968 42.1284 18 42C10.8745 41.8841 7 39 0 39" stroke="#4ADE80"/>
<path d="M38 43C30 43 25.8968 46.1284 18 46C10.8745 45.8841 7 43 0 43" stroke="#4ADE80"/>
<path d="M38 47C30 47 25.8968 50.1284 18 50C10.8745 49.8841 7 47 0 47" stroke="#4ADE80"/>
<path d="M38 51C30 51 25.8968 54.1284 18 54C10.8745 53.8841 7 51 0 51" stroke="#4ADE80"/>
<path d="M38 55C30 55 25.8968 58.1284 18 58C10.8745 57.8841 7 55 0 55" stroke="#4ADE80"/>
<path d="M38 59C30 59 25.8968 62.1284 18 62C10.8745 61.8841 7 59 0 59" stroke="#4ADE80"/>
<path d="M38 63C30 63 25.8968 66.1284 18 66C10.8745 65.8841 7 63 0 63" stroke="#4ADE80"/>
<path d="M38 67C30 67 25.8968 70.1284 18 70C10.8745 69.8841 7 67 0 67" stroke="#4ADE80"/>
<path d="M38 71C30 71 25.8968 74.1284 18 74C10.8745 73.8841 7 71 0 71" stroke="#4ADE80"/>
<path d="M38 75C30 75 25.8968 78.1284 18 78C10.8745 77.8841 7 75 0 75" stroke="#4ADE80"/>
<path d="M38 79C30 79 25.8968 82.1284 18 82C10.8745 81.8841 7 79 0 79" stroke="#4ADE80"/>
<path d="M38 83C30 83 25.8968 86.1284 18 86C10.8745 85.8841 7 83 0 83" stroke="#4ADE80"/>
<path d="M38 87C30 87 25.8968 90.1284 18 90C10.8745 89.8841 7 87 0 87" stroke="#4ADE80"/>
<path d="M38 91C30 91 25.8968 94.1284 18 94C10.8745 93.8841 7 91 0 91" stroke="#4ADE80"/>
<path d="M38 95C30 95 25.8968 98.1284 18 98C10.8745 97.8841 7 95 0 95" stroke="#4ADE80"/>
<path d="M38 99C30 99 25.8968 102.128 18 102C10.8745 101.884 7 99 0 99" stroke="#4ADE80"/>
<path d="M38 103C30 103 25.8968 106.128 18 106C10.8745 105.884 7 103 0 103" stroke="#4ADE80"/>
<path d="M38 107C30 107 25.8968 110.128 18 110C10.8745 109.884 7 107 0 107" stroke="#4ADE80"/>
<path d="M38 111C30 111 25.8968 114.128 18 114C10.8745 113.884 7 111 0 111" stroke="#4ADE80"/>
<path d="M38 115C30 115 25.8968 118.128 18 118C10.8745 117.884 7 115 0 115" stroke="#4ADE80"/>
<path d="M38 119C30 119 25.8968 122.128 18 122C10.8745 121.884 7 119 0 119" stroke="#4ADE80"/>
<path d="M38 123C30 123 25.8968 126.128 18 126C10.8745 125.884 7 123 0 123" stroke="#4ADE80"/>
<path d="M38 127C30 127 25.8968 130.128 18 130C10.8745 129.884 7 127 0 127" stroke="#4ADE80"/>
<path d="M38 131C30 131 25.8968 134.128 18 134C10.8745 133.884 7 131 0 131" stroke="#4ADE80"/>
<path d="M38 135C30 135 25.8968 138.128 18 138C10.8745 137.884 7 135 0 135" stroke="#4ADE80"/>
<path d="M38 139C30 139 25.8968 142.128 18 142C10.8745 141.884 7 139 0 139" stroke="#4ADE80"/>
<path d="M38 143C30 143 25.8968 146.128 18 146C10.8745 145.884 7 143 0 143" stroke="#4ADE80"/>
<path d="M38 147C30 147 25.8968 150.128 18 150C10.8745 149.884 7 147 0 147" stroke="#4ADE80"/>
<path d="M38 151C30 151 25.8968 154.128 18 154C10.8745 153.884 7 151 0 151" stroke="#4ADE80"/>
<path d="M38 155C30 155 25.8968 158.128 18 158C10.8745 157.884 7 155 0 155" stroke="#4ADE80"/>
<path d="M38 159C30 159 25.8968 162.128 18 162C10.8745 161.884 7 159 0 159" stroke="#4ADE80"/>
<path d="M38 163C30 163 25.8968 166.128 18 166C10.8745 165.884 7 163 0 163" stroke="#4ADE80"/>
<path d="M38 167C30 167 25.8968 170.128 18 170C10.8745 169.884 7 167 0 167" stroke="#4ADE80"/>
<path d="M38 171C30 171 25.8968 174.128 18 174C10.8745 173.884 7 171 0 171" stroke="#4ADE80"/>
<path d="M38 175C30 175 25.8968 178.128 18 178C10.8745 177.884 7 175 0 175" stroke="#4ADE80"/>
<path d="M38 179C30 179 25.8968 182.128 18 182C10.8745 181.884 7 179 0 179" stroke="#4ADE80"/>
<path d="M38 183C30 183 25.8968 186.128 18 186C10.8745 185.884 7 183 0 183" stroke="#4ADE80"/>
<path d="M38 187C30 187 25.8968 190.128 18 190C10.8745 189.884 7 187 0 187" stroke="#4ADE80"/>
<path d="M38 191C30 191 25.8968 194.128 18 194C10.8745 193.884 7 191 0 191" stroke="#4ADE80"/>
<path d="M38 195C30 195 25.8968 198.128 18 198C10.8745 197.884 7 195 0 195" stroke="#4ADE80"/>
<path d="M38 199C30 199 25.8968 202.128 18 202C10.8745 201.884 7 199 0 199" stroke="#4ADE80"/>
<path d="M38 203C30 203 25.8968 206.128 18 206C10.8745 205.884 7 203 0 203" stroke="#4ADE80"/>
<path d="M38 207C30 207 25.8968 210.128 18 210C10.8745 209.884 7 207 0 207" stroke="#4ADE80"/>
<path d="M38 211C30 211 25.8968 214.128 18 214C10.8745 213.884 7 211 0 211" stroke="#4ADE80"/>
<path d="M38 215C30 215 25.8968 218.128 18 218C10.8745 217.884 7 215 0 215" stroke="#4ADE80"/>
<path d="M38 219C30 219 25.8968 222.128 18 222C10.8745 221.884 7 219 0 219" stroke="#4ADE80"/>
<path d="M38 223C30 223 25.8968 226.128 18 226C10.8745 225.884 7 223 0 223" stroke="#4ADE80"/>
<path d="M38 227C30 227 25.8968 230.128 18 230C10.8745 229.884 7 227 0 227" stroke="#4ADE80"/>
</svg>
